<svg xmlns:xlink="http://www.w3.org/1999/xlink" xmlns="http://www.w3.org/2000/svg" width="35" height="35" fill="white" viewBox="0 0 24 24"><defs><linearGradient id="gradientFill" x1="0%" y1="0%" x2="100%" y2="0%"><stop offset="0%" stop-color="rgba(246, 148, 43, 1)"></stop><stop offset="50%" stop-color="rgba(224, 64, 94, 1)"></stop><stop offset="100%" stop-color="rgba(152, 29, 160, 1)"></stop></linearGradient><linearGradient id="gradientFill" x1="0%" y1="0%" x2="100%" y2="0%"><stop offset="0%" stop-color="rgba(246, 148, 43, 1)"></stop><stop offset="50%" stop-color="rgba(224, 64, 94, 1)"></stop><stop offset="100%" stop-color="rgba(152, 29, 160, 1)"></stop></linearGradient></defs><path d="M18.3 5.71a1 1 0 0 0-1.41 0L12 10.59 7.11 5.7A1 1 0 1 0 5.7 7.11L10.59 12l-4.89 4.89a1 1 0 1 0 1.41 1.41L12 13.41l4.89 4.89a1 1 0 0 0 1.41-1.41L13.41 12l4.89-4.89a1 1 0 0 0 0-1.4z" fill-rule="nonzero" transform="matrix(1 0 0 1 0 -0.000106572)" fill="url(&quot;#gradientFill&quot;)"></path></svg>