<svg id="Layer_1" data-name="Layer 1" xmlns="http://www.w3.org/2000/svg" xmlns:xlink="http://www.w3.org/1999/xlink" viewBox="0 0 497.0835 388.863"><defs><style>.cls-1{fill:url(#linear-gradient);}.cls-2{fill:url(#linear-gradient-2);}.cls-3{fill:url(#linear-gradient-3);}.cls-4{fill:url(#linear-gradient-4);}.cls-5{fill:url(#linear-gradient-5);}.cls-6{fill:url(#linear-gradient-6);}.cls-7{fill:url(#linear-gradient-7);}.cls-8{fill:url(#linear-gradient-8);}.cls-9{fill:url(#linear-gradient-9);}.cls-10{fill:url(#linear-gradient-10);}.cls-11{fill:url(#linear-gradient-11);}.cls-12{fill:url(#linear-gradient-12);}.cls-13{fill:url(#linear-gradient-13);}.cls-14{fill:url(#linear-gradient-14);}.cls-15{fill:url(#linear-gradient-15);}.cls-16{fill:url(#linear-gradient-16);}.cls-17{fill:url(#linear-gradient-17);}.cls-18{fill:#8c468f;}.cls-19{fill:#ae5597;}.cls-20{fill:#d6528e;}.cls-21{fill:#ef6947;}.cls-22{fill:#ee9b46;}.cls-23{fill:#fff;}</style><linearGradient id="linear-gradient" x1="143.0912" y1="63.468" x2="377.9848" y2="63.468" gradientUnits="userSpaceOnUse"><stop offset="0" stop-color="#fa4f73"/><stop offset="1" stop-color="#ee9b31"/></linearGradient><linearGradient id="linear-gradient-2" x1="113.7268" y1="88.7197" x2="408.8767" y2="88.7197" gradientUnits="userSpaceOnUse"><stop offset="0" stop-color="#e55173"/><stop offset="1" stop-color="#e79b3d"/></linearGradient><linearGradient id="linear-gradient-3" x1="85.6068" y1="115.9697" x2="231.7467" y2="115.9697" gradientUnits="userSpaceOnUse"><stop offset="0" stop-color="#e9487e"/><stop offset="1" stop-color="#f07b36"/></linearGradient><linearGradient id="linear-gradient-4" x1="249.5667" y1="115.9797" x2="436.4068" y2="115.9797" xlink:href="#linear-gradient-3"/><linearGradient id="linear-gradient-5" x1="25.3917" y1="139.4524" x2="196.0818" y2="139.4524" gradientUnits="userSpaceOnUse"><stop offset="0" stop-color="#de4f8f"/><stop offset="1" stop-color="#f3743d"/></linearGradient><linearGradient id="linear-gradient-6" x1="199.3268" y1="142.2697" x2="210.3067" y2="142.2697" xlink:href="#linear-gradient-5"/><linearGradient id="linear-gradient-7" x1="217.9668" y1="139.5047" x2="227.6167" y2="139.5047" xlink:href="#linear-gradient-5"/><linearGradient id="linear-gradient-8" x1="236.1568" y1="139.5147" x2="242.9967" y2="139.5147" xlink:href="#linear-gradient-5"/><linearGradient id="linear-gradient-9" x1="292.2768" y1="147.9347" x2="296.3767" y2="147.9347" xlink:href="#linear-gradient-5"/><linearGradient id="linear-gradient-10" x1="252.4467" y1="139.5147" x2="484.4568" y2="139.5147" xlink:href="#linear-gradient-5"/><linearGradient id="linear-gradient-11" x1="41.2217" y1="169.4425" x2="217.9817" y2="169.4425" gradientUnits="userSpaceOnUse"><stop offset="0" stop-color="#a64488"/><stop offset="1" stop-color="#cd4f88"/></linearGradient><linearGradient id="linear-gradient-12" x1="230.3067" y1="169.4247" x2="247.0667" y2="169.4247" xlink:href="#linear-gradient-11"/><linearGradient id="linear-gradient-13" x1="256.5168" y1="169.4235" x2="263.4568" y2="169.4235" xlink:href="#linear-gradient-11"/><linearGradient id="linear-gradient-14" x1="271.7668" y1="169.4297" x2="464.7268" y2="169.4297" xlink:href="#linear-gradient-11"/><linearGradient id="linear-gradient-15" x1="80.9867" y1="192.4347" x2="249.8067" y2="192.4347" gradientUnits="userSpaceOnUse"><stop offset="0" stop-color="#9b4898"/><stop offset="0.9955" stop-color="#ab4d99"/></linearGradient><linearGradient id="linear-gradient-16" x1="267.3868" y1="192.4347" x2="427.3468" y2="192.4347" xlink:href="#linear-gradient-15"/><linearGradient id="linear-gradient-17" x1="121.6468" y1="217.0197" x2="386.6967" y2="217.0197" gradientUnits="userSpaceOnUse"><stop offset="0" stop-color="#873f95"/><stop offset="0.9955" stop-color="#7d3888"/></linearGradient></defs><ellipse class="cls-1" cx="260.538" cy="63.468" rx="117.4468" ry="7.0213"/><path class="cls-2" d="M408.8767,88.72c0,2.44-26.04,4.58-65.6,5.84-23.45.74-51.64,1.18-81.97,1.18q-3.5249,0-7.02-.01-3.285,0-6.53-.02c-.2-1.51-.41-3.01-.61-4.52-.05-.34-.09-.68-.14-1.02-.48-3.53-4.16-4.83-7.27-4.09h-.01a5.3727,5.3727,0,0,0-4.29,4.09c-.36,1.82-.71,3.63-1.07,5.45-17.62-.15-34.15-.46-48.98-.88-10.48-.3-20.12-.66-28.7-1.06-26.55-1.28-42.96-3.03-42.96-4.96,0-1.92,16.41-3.68,42.96-4.95,5.01-.24,10.38-.46,16.07-.66,17.73-.64,38.56-1.09,61.22-1.29,8.86-.08,17.99-.12,27.33-.12,21.67,0,42.24.22,60.78.62C373.2668,83.43,408.8767,85.88,408.8767,88.72Z"/><path class="cls-3" d="M204.6468,109.33c8.75-.12,17.8-.21,27.1-.27q-1.3648,6.915-2.71,13.82c-.66,0-1.32-.01-1.97-.01-3.71-.03-7.39-.06-11.01-.1-.35-1.36-.7-2.73-1.05-4.09-1.3-5.08-8.35-5.77-10.97-1.43-1.07,1.77-2.14,3.55-3.21,5.32-15.92-.23-30.76-.55-44.14-.94-43.13-1.28-71.08-3.34-71.08-5.65s27.95-4.37,71.08-5.65c14.44-.42,30.58-.76,47.95-1Z"/><path class="cls-4" d="M436.4068,115.98c0,2.03-21.39,3.85-55.62,5.13h-.01c-18.82.7-41.51,1.24-66.67,1.56-16.75.21-34.59.33-53.1.33-3.2,0-6.37,0-9.53-.01q-.96-7.005-1.91-14.01c3.78-.02,7.6-.02,11.44-.02q9.0452,0,17.86.04c34.46.14,65.98.68,91.62,1.5h.01C410.6668,111.78,436.4068,113.76,436.4068,115.98Z"/><path class="cls-5" d="M196.0818,130.4274q-5.46,9.03-10.91,18.05-14.7-.195-28.49-.46c-77.62-1.51-131.29-4.76-131.29-8.51s53.67-6.99,131.29-8.5C169.2317,130.7675,182.4117,130.5675,196.0818,130.4274Z"/><path class="cls-6" d="M206.9967,135.8q1.6651,6.465,3.31,12.94c-3.69-.03-7.36-.06-10.98-.1C201.9367,144.4,204.4668,140.1,206.9967,135.8Z"/><path class="cls-7" d="M217.9668,130.23c3.2-.02,6.41-.04,9.65-.05q-1.83,9.33-3.65,18.65h-1.24Q220.3418,139.53,217.9668,130.23Z"/><path class="cls-8" d="M240.4367,130.13q1.2751,9.39,2.56,18.77-3.4349,0-6.84-.01,1.83-9.375,3.67-18.76Z"/><path class="cls-9" d="M295.2968,147.92l1.08.84c-1.37.02-2.73.03-4.1.03.46-.41.93-.81,1.39-1.22.19-.16.37-.33.56-.49C294.5868,147.36,294.9367,147.64,295.2968,147.92Z"/><path class="cls-10" d="M484.4568,139.51c0,3.17-38.28,5.97-96.93,7.68l-2.07.06q-5.625.165-11.49.31c-18,.45-37.63.8-58.44,1.02h-.01q-8.64-6.735-17.29-13.48c-2.69-2.1-5.79-2.36-8.48,0q-5.13,4.485-10.24,8.96c-.47.41-.95.83-1.42,1.24-3.77.18-7.77.99-10.47,3.61q-6.255.015-12.61.01-.945-6.93-1.89-13.87c-.22-1.65-.45-3.29-.67-4.94h2.47c34.87,0,67.91.32,97.51.89h.04c11.69.22,22.84.49,33.35.79C445.4367,133.49,484.4568,136.31,484.4568,139.51Z"/><path class="cls-11" d="M217.9817,178.6975c-21.73-.16-42.33-.46-61.3-.9-68.53-1.55-115.46-4.72-115.46-8.37,0-3.66,46.93-6.83,115.46-8.38q8.94-.21,18.31-.37,6.72-.12,13.65-.22h.01q12-.1652,24.59-.27c1.36,5.28,2.7,10.56,4.06,15.83C217.5317,176.9074,217.7517,177.8074,217.9817,178.6975Z"/><path class="cls-12" d="M244.5067,160.03q1.29,9.39,2.56,18.79-8.4749,0-16.76-.04,1.83-9.36,3.66-18.72C237.4568,160.04,240.9768,160.03,244.5067,160.03Z"/><path class="cls-13" d="M256.5168,160.02c2.32,0,4.64.01,6.94.01-.96,4.29-1.74,8.65-2.68,12.92q-.63,2.925-1.28,5.87a2.9424,2.9424,0,0,1-.42,0Q257.7868,169.4147,256.5168,160.02Z"/><path class="cls-14" d="M464.7268,169.43c0,3.25-37.2,6.12-93.74,7.81-10.82.32-22.35.6-34.47.83-20.16.39-41.94.63-64.75.72,1.36-6.23,2.72-12.44,4.08-18.67,0-.02.01-.03.01-.05q18.615.09,36.15.32h.01c12.18.16,23.9.36,35.07.61h.19c8.15.18,16,.38,23.5.6h.01c4.4.14,8.68.27,12.83.42C433.0067,163.75,464.7268,166.42,464.7268,169.43Z"/><path class="cls-15" d="M248.0368,185.95c.6,4.32,1.18,8.65,1.77,12.97-34.49-.03-66.48-.45-93.12-1.13-45.7-1.17-75.7-3.13-75.7-5.36s30-4.2,75.7-5.36C182.8767,186.4,214.2268,185.99,248.0368,185.95Z"/><path class="cls-16" d="M427.3468,192.43c0,2.47-36.76,4.61-90.89,5.71a.01.01,0,0,1-.01.01c-20.82.41-44.21.68-69.06.75l2.82-12.93c31.69.11,60.91.54,85.33,1.2C399.0468,188.34,427.3468,190.26,427.3468,192.43Z"/><path class="cls-17" d="M386.6967,217.02c0,2.95-40.01,5.43-94.85,6.23-11.32.16-23.28.25-35.64.26h-2.04c-24.28,0-47.04-.32-66.61-.88h-.02c-11.49-.33-21.89-.74-30.85-1.21-21.76-1.15-35.04-2.71-35.04-4.4s13.28-3.24,35.04-4.39c23.64-1.26,57.27-2.06,94.71-2.1.24,1.77.48,3.53.72,5.3.81,5.95,10.37,5.49,11.57,0,.38-1.76.77-3.52,1.15-5.28,14.64.06,28.61.23,41.53.5h.02q3.21.075,6.33.15C356.5468,212.26,386.6967,214.47,386.6967,217.02Z"/><path class="cls-18" d="M329.05,201.7716l-110.33,63.7c-27.57,15.92-62.03-3.98-62.03-35.81v-16.83c33.14,15.6,82.65,17.95,133.89,3.29A258.1074,258.1074,0,0,0,329.05,201.7716Z"/><path class="cls-19" d="M387.6417,144.1574c0,1.01-.04,2.02-.11,3.03a41.571,41.571,0,0,1-3.92,14.83,42.0466,42.0466,0,0,1-4.51,7.32,40.3687,40.3687,0,0,1-8.12,7.9,38.9032,38.9032,0,0,1-4,2.63l-4.25,2.45c-2.33,1.65-4.74,3.27-7.19,4.85q-9.0152,5.805-19.08,10.97c0,.01-.02.01-.02.01-2.41,1.24-4.89,2.44-7.39,3.62-.75.35-1.5.7-2.25,1.04-.57.26-1.13.51-1.69.75-.19.09-.38.18-.58.27-.32.14-.64.28-.97.42-.85.38-1.72.76-2.6,1.13-.1.04-.19.08-.29.12-.45.19-.9.39-1.36.57-.45.19-.89.38-1.35.56-1.41.58-2.82,1.15-4.25,1.7-.09.04-.17.07-.25.1-.73.28-1.46.56-2.19.83-.73.28-1.45.55-2.19.82-.9.33-1.78.65-2.68.97h-.04c-1.07.39-2.13.76-3.23,1.14h-.01c-.26.09-.54.18-.82.28-.07.02-.13.04-.19.06-1.03.35-2.07.69-3.12,1.03-.55.18-1.1.35-1.66.53-.55.17-1.11.35-1.67.52-.02.01-.05.01-.06.02-.63.19-1.26.39-1.89.57-1.04.32-2.09.62-3.13.92-.73.21-1.46.41-2.18.61q-2.19.6-4.35,1.17c-2.18.56-4.33,1.09-6.5,1.59-2.12.49-4.24.95-6.33,1.39-.05.01-.09.02-.14.03-1.01.2-2.01.4-3.01.59-1.05.2-2.1.4-3.15.59-.17.03-.32.06-.49.09-.64.11-1.29.23-1.95.34q-1.9648.33-3.9.63c-.66.1-1.3.2-1.96.29a.06.06,0,0,0-.04.01c-.13.02-.24.04-.37.06h-.06c-1.42.2-2.81.39-4.22.57h-.01c-1.39.18-2.8.34-4.19.49-2.77.3-5.54.55-8.28.75h-.01c-2.73.2-5.46.35-8.15.45h-.01c-1.35.05-2.68.09-4.01.11h-.03c-1.32.03-2.64.04-3.96.04-.5,0-.99,0-1.48-.01-.5,0-.98-.01-1.47-.01-.85-.01-1.71-.03-2.54-.05-.29-.01-.56-.02-.85-.03-1.78-.05-3.57-.13-5.33-.23q-.2251-.015-.48-.03c-.16,0-.32-.02-.48-.03-.25-.01-.49-.02-.74-.04-.24-.02-.47-.03-.69-.05-.76-.05-1.53-.11-2.28-.17h-.01c-.16-.01-.32-.03-.5-.04-.58-.05-1.18-.1-1.76-.16-1.51-.14-3-.29-4.49-.47-.56-.06-1.12-.14-1.68-.21-.49-.06-.97-.13-1.45-.19-.07-.01-.15-.02-.22-.03-.05-.01-.1-.01-.15-.02-.89-.12-1.79-.25-2.69-.39-.76-.12-1.51-.24-2.26-.37-.17-.03-.34-.06-.52-.09q-.2549-.0448-.54-.09c-.34-.06-.69-.12-1.05-.19-.7-.12-1.38-.25-2.07-.39h-.01c-.81-.16-1.62-.32-2.43-.49-.25-.05-.5-.11-.75-.16-.04-.01-.08-.02-.13-.03s-.09-.02-.13-.03c-.35-.07-.7-.15-1.04-.23-.68-.15-1.36-.31-2.04-.47q-.9749-.2249-1.92-.48c-.63-.16-1.26-.33-1.89-.5-.67-.18-1.35-.36-2-.55-.06-.02-.12-.03-.18-.05-1.26-.36-2.51-.74-3.74-1.13a1.2973,1.2973,0,0,1-.14-.04c-.45-.15-.89-.29-1.33-.44-.43-.14-.86-.29-1.3-.44-.13-.03-.25-.08-.37-.12-.26-.09-.51-.18-.77-.27-.62-.22-1.24-.44-1.85-.67s-1.23-.46-1.82-.69c-.67-.26-1.33-.52-1.99-.8-.65-.26-1.3-.54-1.94-.82-1.05-.45-2.08-.91-3.09-1.39h-.01v-51.78q8.94-.21,18.31-.37c.3.01.59.02.9.04a249.18,249.18,0,0,0,41.41,15.3c.23.89.45,1.79.68,2.68.14.57.3,1.13.44,1.7,1.41,5.52,10.41,5.93,11.56,0q.12-.585.24-1.17,8.7451,1.95,17.34,3.25c.17,1.16.33,2.31.48,3.47q.9,6.48,1.76,12.97c.09.56.16,1.12.24,1.68q.66,4.965,1.36,9.93c.24,1.77.47,3.53.71,5.3.81,5.95,10.37,5.49,11.57,0,.38-1.76.78-3.52,1.16-5.28.84-3.88,1.7-7.77,2.55-11.65l2.82-12.93c.08-.37.15-.73.23-1.1q6.72.39,13.23.38,1.785,0,3.57-.03c1.19-.02,2.38-.05,3.56-.09,1.19-.03,2.37-.08,3.54-.14.82-.04,1.64-.09,2.46-.14q.93-.0448,1.83-.12h.05c.05,0,.1-.01.13-.01q.63-.045,1.23-.09c.44-.03.89-.07,1.33-.11.64-.05,1.27-.11,1.89-.17.29-.02.58-.05.86-.08.2-.02.39-.04.59-.06.43-.04.84-.08,1.27-.13.61-.06,1.2-.13,1.82-.2.55-.06,1.09-.13,1.62-.2q3.1048-.375,6.12-.87c.82-.13,1.63-.27,2.44-.41.93-.16,1.85-.33,2.75-.5.48-.09.94-.18,1.42-.27q.66-.1352,1.29-.27c.39-.07.75-.15,1.12-.24.79-.16,1.55-.33,2.31-.51.35-.08.69-.16,1.04-.24,1.07-.25,2.12-.51,3.17-.78.83-.22,1.65-.44,2.47-.67.09-.02.17-.05.26-.07.05-.01.11-.03.16-.04.11-.03.22-.06.33-.1.73-.2,1.45-.41,2.17-.63a.1338.1338,0,0,0,.05-.01.6221.6221,0,0,1,.07-.02c.8-.24,1.59-.49,2.39-.74.99-.32,1.96-.64,2.94-.98.13-.05.26-.09.41-.14.45-.16.89-.31,1.33-.47.61-.22,1.21-.44,1.81-.67.35-.13.7-.26,1.05-.4.1-.04.21-.08.32-.12.53-.21,1.07-.42,1.59-.64.66-.26,1.3-.53,1.94-.8.66-.28,1.31-.57,1.96-.86.23-.1.47-.21.71-.32.64-.29,1.28-.59,1.91-.89.75-.36,1.49-.72,2.22-1.1.74-.37,1.46-.74,2.18-1.13.63-.34,1.26-.69,1.88-1.03a1.1346,1.1346,0,0,0,.11-.06c.66-.38,1.33-.77,1.97-1.15.67-.4,1.31-.79,1.94-1.19.65-.4,1.28-.81,1.9-1.22.62-.4,1.22-.82,1.83-1.25.32-.22.62-.43.91-.64s.59-.43.89-.65h.01c.54-.4,1.07-.8,1.58-1.21.3-.22.59-.45.86-.68.08-.05.15-.12.23-.18.25-.19.49-.38.71-.58.04-.04.09-.07.13-.11.18-.14.34-.28.52-.43.1-.07.19-.15.29-.23.07-.06.15-.13.22-.2.28-.24.56-.48.83-.73.2-.17.4-.35.61-.54.06-.05.1-.09.15-.14q.7348-.6751,1.44-1.35c.35-.32.68-.65,1-.97.37-.37.72-.73,1.07-1.1.14-.14.29-.29.43-.44q.15-.1652.3-.33c.1-.1.2-.21.3-.32.18-.19.36-.39.53-.59.39-.43.77-.86,1.13-1.3.22-.25.43-.5.62-.75.61-.71,1.17-1.43,1.72-2.17.01,0,.01-.01.01-.02a2.1983,2.1983,0,0,1,.14-.18q.5249-.7049,1.02-1.41c.08-.11.15-.22.23-.34C387.1218,144.9274,387.3917,144.5374,387.6417,144.1574Z"/><path class="cls-20" d="M217.2968,176.02a249.4975,249.4975,0,0,1-41.41-15.3c3.85.18,8.8.71,12.75-.26h.01a8.5053,8.5053,0,0,0,5.38-3.43c1.81-2.76,3.57-5.57,5.3-8.39,2.61-4.24,5.14-8.54,7.67-12.84q1.6651,6.465,3.31,12.94,1.47,5.73,2.94,11.45Q215.2719,168.11,217.2968,176.02Z"/><path class="cls-20" d="M228.8618,123.8175c-.42,2.12-.83,4.24-1.25,6.36-1.21,6.22-2.44,12.44-3.64,18.65-.18.92-.36,1.83-.55,2.75-.23-.92-.46-1.83-.69-2.75q-2.385-9.3-4.76-18.6c-.64-2.48-1.29-4.97-1.92-7.46-.34-1.36-.69-2.73-1.05-4.09-1.29-5.08-8.34-5.77-10.96-1.43-1.07,1.77-2.14,3.55-3.21,5.32q-2.3851,3.93-4.75,7.86-5.46,9.03-10.91,18.05-14.7-.195-28.49-.46v-83.5c.44.59.9,1.19,1.35,1.78.15.22.32.43.5.65l.01.01c.48.63.96,1.26,1.46,1.88.04.04.06.07.1.11.48.61.98,1.23,1.49,1.84.53.65,1.07,1.3,1.63,1.95.57.68,1.15,1.35,1.75,2.03q.825.945,1.68,1.89c.08.09.15.18.24.27q1.38,1.53,2.82,3.03c.58.62,1.17,1.24,1.77,1.85.42.44.85.87,1.27,1.3q2.235,2.235,4.57,4.44c.51.48,1.03.96,1.55,1.44.6.56,1.2,1.1,1.81,1.65.46.42.93.83,1.4,1.24.25.23.51.46.77.68.64.56,1.3,1.13,1.95,1.68.01.02.04.03.06.05.18.16.35.31.53.45.59.51,1.19,1.01,1.78,1.51.1.08.2.17.31.25.7.58,1.41,1.16,2.13,1.73.57.47,1.14.92,1.72,1.36l.45.36c.35.28.69.55,1.04.82.3.23.6.47.91.69.19.15.38.29.57.43.78.61,1.57,1.21,2.37,1.79,1.02.76,2.06,1.51,3.11,2.26.2.15.39.29.61.43.75.53,1.5,1.05,2.26,1.58.65.47,1.32.93,1.99,1.38h.01c.88.6,1.76,1.2,2.65,1.78.91.59,1.81,1.18,2.72,1.76.7.45,1.4.9,2.1,1.34q4.11,2.58,8.42,5.04c.28.15.55.31.82.47.26.15.52.3.78.44.01.01.03.01.04.02s.03.01.04.02c.74.42,1.47.84,2.22,1.24.85.47,1.7.93,2.55,1.39a.4365.4365,0,0,1,.07.04C227.6617,123.1874,228.2517,123.4974,228.8618,123.8175Z"/><path class="cls-20" d="M247.5667,182.48q-8.5948-1.305-17.35-3.25l.09-.45q1.83-9.36,3.66-18.72c.73-3.72,1.45-7.45,2.19-11.17q1.83-9.375,3.67-18.76c.05-.26.1-.53.15-.79.12.06.25.12.38.17.03.21.06.41.08.62q1.2751,9.39,2.56,18.77.75,5.565,1.51,11.13,1.29,9.39,2.56,18.79C247.2367,180.04,247.3968,181.26,247.5667,182.48Z"/><path class="cls-20" d="M279.5067,144.06c-.47.41-.95.83-1.42,1.24-3.77.18-7.77.99-10.47,3.61a9.2658,9.2658,0,0,0-1.46,1.79,7.2914,7.2914,0,0,0-.97,2.57c-.06.13-.26.8-.35,1.13q-.765,2.79-1.38,5.63c-.96,4.29-1.74,8.65-2.68,12.92q-.63,2.925-1.28,5.87c-.08.4-.17.79-.26,1.19-.05-.4-.11-.79-.16-1.19q-1.29-9.405-2.56-18.8-.75-5.55-1.51-11.1-.945-6.93-1.89-13.87A254.7439,254.7439,0,0,0,279.5067,144.06Z"/><path class="cls-20" d="M387.6368,144.16c-.25.38-.51.77-.77,1.14-.16.23-.32.46-.49.69a.6863.6863,0,0,0-.07.11c-.23.32-.46.64-.7.95-.05.06-.09.12-.14.18,0,.01,0,.02-.01.02-.55.74-1.11,1.46-1.71,2.17-.2.25-.41.5-.62.75-.74.87-1.51,1.74-2.31,2.58-.48.51-.96,1-1.46,1.5-.32.32-.65.65-.99.97q-.7049.675-1.44,1.35c-.05.05-.1.09-.16.14-.4.37-.8.72-1.21,1.07-.08.07-.15.14-.23.2-.34.29-.68.58-1.02.86-.63.53-1.27,1.04-1.93,1.55-.52.41-1.05.81-1.59,1.21h-.01c-.29.22-.59.44-.89.65-.29.21-.59.42-.9.64-.61.43-1.22.85-1.84,1.25-.62.41-1.25.82-1.89,1.22-.63.4-1.28.79-1.94,1.19-.65.38-1.31.77-1.98,1.15a.8814.8814,0,0,1-.1.06c-.62.34-1.25.69-1.89,1.03-.71.38-1.44.76-2.17,1.13-.67.34-1.34.68-2.03,1.01-.24.12-.49.23-.74.35-.45.22-.91.43-1.37.63-.24.11-.47.22-.71.32-.64.3-1.29.58-1.95.86-.64.27-1.29.54-1.94.8-.53.22-1.06.43-1.6.64-.11.04-.21.08-.32.12-.34.14-.7.27-1.05.4-.09.04-.19.07-.28.1q-.765.3-1.53.57c-.44.16-.88.31-1.33.47-.14.05-.27.09-.41.14-.97.34-1.95.66-2.94.98-.79.25-1.59.5-2.39.74-.02.01-.05.01-.07.02a.09.09,0,0,1-.05.01c-.83.25-1.66.49-2.5.73-.05.01-.1.03-.15.04a2.491,2.491,0,0,1-.26.07c-.82.23-1.65.45-2.48.67-1.05.27-2.1.53-3.17.78-.34.08-.69.16-1.03.24q-1.14.27-2.31.51c-.37.08-.74.16-1.12.24-.43.09-.86.18-1.3.27l-1.41.27c-.91.17-1.83.34-2.75.5-.81.14-1.63.28-2.45.41-1,.16-2.02.31-3.04.46-1.02.14-2.04.28-3.07.41-.54.07-1.08.14-1.63.2-.61.07-1.21.14-1.82.2-.42.05-.84.09-1.27.13a5.4193,5.4193,0,0,1-.58.06.1706.1706,0,0,0-.07.01c-.89.08-1.78.17-2.68.24-.44.04-.89.08-1.34.11-.4.03-.81.06-1.22.09-.04,0-.09.01-.13.01-.63.05-1.25.08-1.89.12-.82.05-1.64.1-2.46.14-1.16.06-2.34.11-3.53.14-1.18.04-2.37.07-3.56.09s-2.38.03-3.58.03q-6.51,0-13.22-.38c.36-1.65.72-3.31,1.08-4.96.08-.37.16-.75.24-1.12,1.36-6.23,2.72-12.44,4.08-18.67,0-.02.01-.03.01-.05.19-.81.36-1.63.54-2.44,1.79-.27,5.87-.72,6.28-.89,2.97-1.25,5.64-4.48,8.01-6.56.52-.46,1.05-.92,1.58-1.39h.01c.46-.41.93-.81,1.39-1.22.55.12,1.09.24,1.63.35l1.08.84q3.0451,2.37,6.08,4.74c2.81,2.19,6.02,5.51,9.55,6.89h.01a8.847,8.847,0,0,0,2.8.61c10.71.44,21.53.01,32.27,0h.41c5.43,0,7.04-5.93,4.83-9.45.82-.08,1.63-.17,2.44-.27.61-.07,1.22-.14,1.82-.22l.9-.12c.7-.1,1.39-.2,2.08-.31.75-.11,1.49-.23,2.23-.36a1.47,1.47,0,0,0,.29-.05q1.0949-.18,2.16-.39c.77-.14,1.54-.3,2.3-.46.83-.17,1.64-.35,2.45-.54.82-.19,1.62-.38,2.42-.59l1.29-.33c.42-.12.84-.23,1.26-.35.48-.13.96-.27,1.43-.41.72-.21,1.43-.42,2.13-.65a.4377.4377,0,0,0,.05-.01c.69-.22,1.37-.45,2.05-.68.49-.17.98-.34,1.46-.51a.879.879,0,0,1,.15-.05c.31-.12.62-.23.93-.35a1.3355,1.3355,0,0,0,.18-.07q.675-.24,1.35-.51c.57-.22,1.13-.45,1.68-.68.2-.08.39-.16.58-.24.56-.23,1.11-.48,1.66-.72C387.6368,143.17,387.6368,143.67,387.6368,144.16Z"/><path class="cls-21" d="M239.7268,86.08a5.3727,5.3727,0,0,0-4.29,4.09c-.36,1.82-.71,3.63-1.07,5.45q-1.32,6.72-2.62,13.44-1.3648,6.915-2.71,13.82c-.06.31-.12.63-.18.94-.6-.32-1.2-.63-1.79-.95a.4437.4437,0,0,1-.07-.04c-.86-.46-1.71-.92-2.55-1.39-.75-.4-1.49-.82-2.23-1.24-.01-.01-.02-.01-.03-.02-.55-.3-1.1-.62-1.65-.93q-4.29-2.46-8.41-5.04c-.71-.44-1.41-.89-2.11-1.34-.91-.58-1.81-1.17-2.71-1.76-.9-.58-1.78-1.18-2.66-1.78h-.01c-.67-.45-1.33-.91-1.99-1.38-.76-.53-1.51-1.05-2.26-1.58-.21-.14-.41-.28-.61-.43q-3.09-2.205-6.05-4.48c-.1-.08-.21-.16-.31-.24-.7-.53-1.4-1.07-2.09-1.63-.29-.22-.57-.45-.86-.68-.29-.22-.57-.45-.85-.68q-2.16-1.725-4.23-3.49c-.18-.14-.35-.29-.53-.45-.02-.02-.04-.03-.06-.05-.65-.55-1.3-1.12-1.95-1.68q-1.0951-.945-2.16-1.92c-2.76-2.47-5.4-4.99-7.93-7.53-.67-.67-1.33-1.35-1.98-2.03-.69-.71-1.37-1.42-2.04-2.14-.62-.67-1.24-1.34-1.85-2.01l-.24-.27q-.855-.945-1.68-1.89c-.59-.68-1.18-1.35-1.75-2.03-.55-.65-1.09-1.3-1.63-1.95-.5-.61-1-1.22-1.49-1.84-.03-.04-.06-.07-.09-.11-.5-.62-.99-1.25-1.47-1.88q-.27-.33-.51-.66c-.46-.6-.9-1.19-1.34-1.78V58.46a41.11,41.11,0,0,1,25.7-38.28q1.905,4.41,4.3,8.82c.32.58.64,1.17.97,1.75.9,1.6,1.86,3.2,2.86,4.8.3.5.62,1.01.95,1.51.61.95,1.23,1.89,1.87,2.83.35.52.7,1.03,1.07,1.54.26.38.52.76.8,1.14q1.065,1.5,2.19,3c.38.52.78,1.04,1.19,1.56q.75.975,1.53,1.95c.3.39.62.78.94,1.18.42.52.85,1.03,1.28,1.55.42.52.86,1.04,1.31,1.55.43.51.88,1.03,1.32,1.54.68.78,1.37,1.55,2.07,2.32.58.64,1.16,1.27,1.76,1.91.59.63,1.19,1.26,1.8,1.9.97,1.01,1.96,2.02,2.97,3.02,1,1,2.03,2,3.07,2.99q1.56,1.5,3.18,2.96c.02.02.05.04.07.06.5.45.99.9,1.5,1.36q5.94,5.31,12.55,10.37c.01.01.03.02.04.03.43.32.85.65,1.28.98Q237.4469,84.45,239.7268,86.08Z"/><path class="cls-21" d="M240.1867,128.24c.06.42.12.85.17,1.27-.13-.05-.26-.11-.38-.17C240.0468,128.97,240.1167,128.61,240.1867,128.24Z"/><path class="cls-21" d="M295.2968,147.92c-.54-.11-1.08-.23-1.63-.35.19-.16.37-.33.56-.49C294.5868,147.36,294.9367,147.64,295.2968,147.92Z"/><path class="cls-21" d="M387.6167,142.68c-.55.24-1.1.49-1.66.72-.19.08-.38.16-.58.24-.55.23-1.11.46-1.68.68q-.675.27-1.35.51a1.3355,1.3355,0,0,1-.18.07c-.31.12-.62.23-.93.35a.879.879,0,0,0-.15.05c-.48.17-.97.34-1.46.51-.68.23-1.36.46-2.05.68a.4377.4377,0,0,1-.05.01c-.7.23-1.41.44-2.13.65-.47.14-.95.28-1.43.41-.42.12-.84.23-1.26.35l-1.29.33c-.8.21-1.6.4-2.42.59-.81.19-1.62.37-2.45.54-.76.16-1.53.32-2.3.46q-1.0648.21-2.16.39a1.47,1.47,0,0,1-.29.05c-.74.13-1.48.25-2.23.36-.69.11-1.38.21-2.08.31l-.9.12c-.6.08-1.21.15-1.82.22-.81.1-1.62.19-2.44.27a5.4255,5.4255,0,0,0-4.83-2.55h-31.44c-.18-.14-.35-.28-.53-.42h-.01q-8.64-6.735-17.29-13.48c-2.69-2.1-5.79-2.36-8.48,0q-5.13,4.485-10.24,8.96a254.7439,254.7439,0,0,1-26.39-9.01c-.22-1.65-.45-3.29-.67-4.94-.33-2.37-.65-4.75-.97-7.12q-.96-7.005-1.91-14.01c-.16-1.19-.33-2.39-.49-3.58q-.66-4.845-1.32-9.69c-.2-1.51-.41-3.01-.61-4.52.82.54,1.65,1.08,2.49,1.63.57.36,1.14.72,1.72,1.09.81.51,1.62,1.02,2.44,1.52l.49.3,1.37.84,2.1,1.26q5.85,3.45,12.05,6.68c.73.39,1.47.77,2.21,1.14.88.45,1.77.89,2.66,1.33.61.31,1.22.61,1.84.9.78.38,1.56.75,2.35,1.12.64.31,1.28.61,1.93.9.86.41,1.73.81,2.6,1.2,1.33.6,2.65,1.18,3.98,1.74q1.2.525,2.4,1.02c1.03.45,2.07.87,3.1,1.28.86.36,1.72.7,2.58,1.03.77.31,1.54.61,2.32.9,1.48.57,2.95,1.11,4.43,1.64q.465.18.93.33c1.59.58,3.18,1.12,4.77,1.65.58.2,1.16.39,1.73.57q2.2349.735,4.47,1.41a.6631.6631,0,0,0,.2.06c.75.23,1.5.45,2.25.68.38.11.76.22,1.13.33,1.24.36,2.48.71,3.71,1.04.56.15,1.11.3,1.66.44q4.3651,1.17,8.7,2.13c.66.15,1.32.3,1.97.44q5.91,1.275,11.71,2.2c1.57.25,3.13.48,4.69.7.65.09,1.31.18,1.95.26.12.02.24.03.35.05h.04c.44.06.88.11,1.31.16.44.05.88.11,1.31.15q.675.09,1.35.15c.72.08,1.44.15,2.16.22,1.02.1,2.03.19,3.04.27.86.07,1.71.13,2.57.19a4.0263,4.0263,0,0,0,.49.03c.49.04.98.06,1.47.09s.98.06,1.46.08q1.485.075,2.97.12c.67.02,1.34.04,2.01.05.58.01,1.15.02,1.72.03q5.94.09,11.64-.25A41.6412,41.6412,0,0,1,387.6167,142.68Z"/><path class="cls-22" d="M385.9668,132.29q-5.7.33-11.64.25c-.57-.01-1.14-.02-1.72-.03-.67-.01-1.34-.03-2.01-.05q-1.485-.045-2.97-.12c-.48-.02-.97-.05-1.46-.08s-.98-.05-1.47-.09a4.0263,4.0263,0,0,1-.49-.03c-.86-.06-1.71-.12-2.57-.19-1.01-.08-2.02-.17-3.04-.27-.72-.07-1.44-.14-2.16-.22q-.675-.06-1.35-.15c-.43-.04-.87-.1-1.31-.15-.43-.05-.87-.1-1.31-.16h-.04c-.11-.02-.23-.03-.35-.05-.64-.08-1.3-.17-1.95-.26-1.56-.22-3.12-.45-4.69-.7q-5.805-.915-11.71-2.2c-.65-.14-1.31-.29-1.97-.44q-4.335-.96-8.7-2.13c-.55-.14-1.1-.29-1.66-.44-1.23-.33-2.47-.68-3.71-1.04-.37-.11-.75-.22-1.13-.33-.75-.23-1.5-.45-2.25-.68a.6631.6631,0,0,1-.2-.06q-2.2352-.675-4.47-1.41c-.57-.18-1.15-.37-1.73-.57-1.59-.53-3.18-1.07-4.77-1.65q-.465-.15-.93-.33c-1.48-.53-2.95-1.07-4.43-1.64-.78-.29-1.55-.59-2.32-.9-.86-.33-1.72-.67-2.58-1.03-1.03-.41-2.07-.83-3.1-1.28q-1.2-.495-2.4-1.02c-1.33-.56-2.65-1.14-3.98-1.74-.87-.39-1.74-.79-2.6-1.2-.65-.29-1.29-.59-1.93-.9-.79-.37-1.57-.74-2.35-1.12-.62-.29-1.23-.59-1.84-.9-.89-.44-1.78-.88-2.66-1.33-.74-.37-1.48-.75-2.21-1.14q-6.195-3.225-12.05-6.68l-2.1-1.26-1.37-.84-.49-.3c-.82-.5-1.63-1.01-2.44-1.52-.58-.37-1.15-.73-1.72-1.09-.84-.55-1.67-1.09-2.49-1.63-.05-.34-.09-.68-.14-1.02-.48-3.53-4.16-4.83-7.27-4.09h-.01q-2.28-1.635-4.47-3.28c-.43-.33-.85-.66-1.28-.98-.01-.01-.03-.02-.04-.03q-6.6-5.055-12.55-10.37c-.51-.46-1-.91-1.5-1.36-.02-.02-.05-.04-.07-.06q-1.62-1.47-3.18-2.96c-1.04-.99-2.07-1.99-3.07-2.99-1.01-1-2-2.01-2.97-3.02-.61-.64-1.21-1.27-1.8-1.9-.6-.64-1.18-1.27-1.76-1.91-.7-.77-1.39-1.54-2.07-2.32-.44-.51-.89-1.03-1.32-1.54-.44-.51-.88-1.03-1.31-1.55s-.86-1.03-1.28-1.55c-.32-.4-.63-.79-.94-1.18q-.78-.975-1.53-1.95c-.4-.52-.8-1.04-1.19-1.56q-1.125-1.5-2.19-3c-.28-.38-.54-.76-.8-1.14-.37-.51-.72-1.02-1.07-1.54-.64-.94-1.26-1.88-1.87-2.83-.33-.5-.65-1.01-.95-1.51-1-1.6-1.96-3.2-2.86-4.8-.33-.58-.65-1.17-.97-1.75q-2.3848-4.41-4.3-8.82a40.8041,40.8041,0,0,1,36.33,2.46l58.69,33.88,23.46,13.55,21.22,12.25,21.19,12.24,23.7,13.68c1.22.71,2.39,1.46,3.51,2.26h.01a41.0127,41.0127,0,0,1,10.28,10.61h.01a40.869,40.869,0,0,1,5.03,10.68C385.8667,131.96,385.9168,132.12,385.9668,132.29Z"/><path class="cls-23" d="M39.5707,298.1062H20.3694v64.0043H31.89V342.1091h7.6806a22.0016,22.0016,0,0,0,0-44.0029ZM31.89,309.6273h7.65a10.4023,10.4023,0,0,1,7.5044,3.0619,10.6063,10.6063,0,0,1-.0078,14.8049,10.3053,10.3053,0,0,1-7.4665,3.094H31.89Z"/><path class="cls-23" d="M80.1871,347.5751a9.96,9.96,0,0,1-3.0143-7.3864V298.1062H65.4919v42.0825a21.1013,21.1013,0,0,0,6.4759,15.5448,21.4081,21.4081,0,0,0,15.5256,6.377h2V350.5894h-2A9.8658,9.8658,0,0,1,80.1871,347.5751Z"/><path class="cls-23" d="M111.8946,318.0279a22.0813,22.0813,0,0,0,0,44.1623,21.726,21.726,0,0,0,10.4808-2.6338V362.19h11.5207V340.109a22.0767,22.0767,0,0,0-22.0015-22.0811Zm0,11.6007a10.4737,10.4737,0,0,1,7.4189,17.8739l0,.0008a10.46,10.46,0,1,1-7.4185-17.8747Z"/><path class="cls-23" d="M170.3778,340.109a9.9966,9.9966,0,0,1-3.0225,7.3544,9.89,9.89,0,0,1-7.3782,3.0463,10.09,10.09,0,0,1-7.4345-3.0221,9.8922,9.8922,0,0,1-3.0463-7.3786V318.1076H137.9834l-.0879,22.0014a22.1655,22.1655,0,0,0,16.321,21.353v16.6495h11.5207V361.4628a22.0034,22.0034,0,0,0,16.2413-21.3538V318.1076H170.3778Z"/><path class="cls-23" d="M240.3019,318.1873a21.4745,21.4745,0,0,0-10.135,2.472,21.85,21.85,0,0,0-6.0477,4.6816,21.9765,21.9765,0,0,0-31.76-.722,21.368,21.368,0,0,0-6.3813,15.57v21.9218h11.6008V340.1887a10.3683,10.3683,0,0,1,20.7213-.59v22.5117h11.5206V339.5988a9.8734,9.8734,0,0,1,3.2135-6.9567,10.5649,10.5649,0,0,1,14.6611.2086,9.8665,9.8665,0,0,1,3.087,7.338v21.9218H262.224V340.1887a21.8742,21.8742,0,0,0-21.9221-22.0014Z"/><path class="cls-23" d="M298.7054,340.109a9.9962,9.9962,0,0,1-3.0221,7.3544,9.8908,9.8908,0,0,1-7.3786,3.0463,10.0888,10.0888,0,0,1-7.4341-3.0221,9.8907,9.8907,0,0,1-3.0463-7.3786V318.1076H266.311l-.0875,22.0014a22.1652,22.1652,0,0,0,16.3214,21.353v16.6495h11.52V361.4628a22.0037,22.0037,0,0,0,16.2409-21.3538V318.1076H298.7054Z"/><path class="cls-23" d="M336.2977,317.8677a21.5476,21.5476,0,0,0-10.47,2.7119V298.0852l-11.5289.1218.168,41.9208a21.4416,21.4416,0,0,0,6.5957,15.5658,21.1679,21.1679,0,0,0,15.3455,6.338c.08,0,.16,0,.24-.0008a22.0823,22.0823,0,0,0-.35-44.1631Zm-7.1364,29.548a10.2758,10.2758,0,0,1-3.1745-7.4176,9.7845,9.7845,0,0,1,2.9823-7.363,10.2347,10.2347,0,0,1,7.4489-3.1666c.0633-.0016.1266-.0016.1891-.0016a9.8361,9.8361,0,0,1,7.1825,2.951,10.1038,10.1038,0,0,1,3.1588,7.4013,9.86,9.86,0,0,1-3.0221,7.4043,10.2159,10.2159,0,0,1-7.41,3.2065A9.6445,9.6445,0,0,1,329.1613,347.4157Z"/><path class="cls-23" d="M366.445,324.6635A22.0415,22.0415,0,0,0,366.45,355.68a21.1682,21.1682,0,0,0,15.5408,6.4309h21.921V350.51h-21.921a9.9935,9.9935,0,0,1-7.3544-3.0221,10.3138,10.3138,0,0,1-.032-14.6048,9.96,9.96,0,0,1,7.3864-3.0143h21.921V318.1873h-21.921A21.1031,21.1031,0,0,0,366.445,324.6635Z"/><path class="cls-23" d="M377.8957,336.015a5.7608,5.7608,0,0,0,4.0948,9.8546h12.0008V334.3485H381.9905A5.6638,5.6638,0,0,0,377.8957,336.015Z"/><path class="cls-23" d="M426.713,318.0279a22.0813,22.0813,0,0,0,0,44.1623,21.7335,21.7335,0,0,0,10.48-2.6338V362.19h11.5211V340.109a22.0767,22.0767,0,0,0-22.0015-22.0811Zm0,11.6007a10.4737,10.4737,0,0,1,7.4185,17.8739v.0008a10.46,10.46,0,1,1-7.4185-17.8747Z"/><path class="cls-23" d="M476.7155,329.6286v-11.521H464.235V298.1062H452.7139v42.3231a20.7887,20.7887,0,0,0,6.4809,15.3495,21.4837,21.4837,0,0,0,15.5206,6.3317h2V350.5894h-2a10.5659,10.5659,0,0,1-10.48-10.48v-10.48Z"/></svg>