<svg id="Layer_1" data-name="Layer 1" xmlns="http://www.w3.org/2000/svg" xmlns:xlink="http://www.w3.org/1999/xlink" viewBox="0 0 784.2677 180.3617"><defs><style>.cls-1{fill:url(#linear-gradient);}.cls-2{fill:url(#linear-gradient-2);}.cls-3{fill:url(#linear-gradient-3);}.cls-4{fill:url(#linear-gradient-4);}.cls-5{fill:url(#linear-gradient-5);}.cls-6{fill:url(#linear-gradient-6);}.cls-7{fill:url(#linear-gradient-7);}.cls-8{fill:url(#linear-gradient-8);}.cls-9{fill:url(#linear-gradient-9);}.cls-10{fill:url(#linear-gradient-10);}.cls-11{fill:url(#linear-gradient-11);}.cls-12{fill:url(#linear-gradient-12);}.cls-13{fill:url(#linear-gradient-13);}.cls-14{fill:url(#linear-gradient-14);}.cls-15{fill:url(#linear-gradient-15);}.cls-16{fill:url(#linear-gradient-16);}.cls-17{fill:url(#linear-gradient-17);}.cls-18{fill:#8c468f;}.cls-19{fill:#ae5597;}.cls-20{fill:#d6528e;}.cls-21{fill:#ef6947;}.cls-22{fill:#ee9b46;}.cls-23{fill:#1d1d1b;}</style><linearGradient id="linear-gradient" x1="88.5883" y1="47.2994" x2="213.5746" y2="47.2994" gradientUnits="userSpaceOnUse"><stop offset="0" stop-color="#fa4f73"/><stop offset="1" stop-color="#ee9b31"/></linearGradient><linearGradient id="linear-gradient-2" x1="72.9635" y1="60.7358" x2="230.0121" y2="60.7358" gradientUnits="userSpaceOnUse"><stop offset="0" stop-color="#e55173"/><stop offset="1" stop-color="#e79b3d"/></linearGradient><linearGradient id="linear-gradient-3" x1="58.001" y1="75.2354" x2="135.7617" y2="75.2354" gradientUnits="userSpaceOnUse"><stop offset="0" stop-color="#e9487e"/><stop offset="1" stop-color="#f07b36"/></linearGradient><linearGradient id="linear-gradient-4" x1="145.2437" y1="75.2408" x2="244.6608" y2="75.2408" xlink:href="#linear-gradient-3"/><linearGradient id="linear-gradient-5" x1="25.9536" y1="87.7315" x2="116.7836" y2="87.7315" gradientUnits="userSpaceOnUse"><stop offset="0" stop-color="#de4f8f"/><stop offset="1" stop-color="#f3743d"/></linearGradient><linearGradient id="linear-gradient-6" x1="118.5111" y1="89.2296" x2="124.3535" y2="89.2296" xlink:href="#linear-gradient-5"/><linearGradient id="linear-gradient-7" x1="128.4294" y1="87.7583" x2="133.5641" y2="87.7583" xlink:href="#linear-gradient-5"/><linearGradient id="linear-gradient-8" x1="138.1082" y1="87.7637" x2="141.7478" y2="87.7637" xlink:href="#linear-gradient-5"/><linearGradient id="linear-gradient-9" x1="167.9696" y1="92.2439" x2="170.1511" y2="92.2439" xlink:href="#linear-gradient-5"/><linearGradient id="linear-gradient-10" x1="146.7761" y1="87.7637" x2="270.2281" y2="87.7637" xlink:href="#linear-gradient-5"/><linearGradient id="linear-gradient-11" x1="34.3836" y1="103.6865" x2="128.4436" y2="103.6865" gradientUnits="userSpaceOnUse"><stop offset="0" stop-color="#a64488"/><stop offset="1" stop-color="#cd4f88"/></linearGradient><linearGradient id="linear-gradient-12" x1="134.9955" y1="103.6787" x2="143.9134" y2="103.6787" xlink:href="#linear-gradient-11"/><linearGradient id="linear-gradient-13" x1="148.9417" y1="103.678" x2="152.6345" y2="103.678" xlink:href="#linear-gradient-11"/><linearGradient id="linear-gradient-14" x1="157.0562" y1="103.6814" x2="259.7298" y2="103.6814" xlink:href="#linear-gradient-11"/><linearGradient id="linear-gradient-15" x1="55.5426" y1="115.9223" x2="145.3714" y2="115.9223" gradientUnits="userSpaceOnUse"><stop offset="0" stop-color="#9b4898"/><stop offset="0.9955" stop-color="#ab4d99"/></linearGradient><linearGradient id="linear-gradient-16" x1="154.7256" y1="115.9223" x2="239.84" y2="115.9223" xlink:href="#linear-gradient-15"/><linearGradient id="linear-gradient-17" x1="77.1778" y1="129.0039" x2="218.2102" y2="129.0039" gradientUnits="userSpaceOnUse"><stop offset="0" stop-color="#873f95"/><stop offset="0.9955" stop-color="#7d3888"/></linearGradient></defs><ellipse class="cls-1" cx="151.0815" cy="47.2994" rx="62.4932" ry="3.736"/><path class="cls-2" d="M230.0121,60.7358c0,1.2983-13.8558,2.437-34.9056,3.1074-12.4777.3938-27.4775.6279-43.616.6279q-1.8756,0-3.7353-.0053-1.748,0-3.4746-.0107c-.1065-.8034-.2182-1.6016-.3246-2.405-.0266-.181-.0479-.3619-.0745-.5428-.2554-1.8783-2.2135-2.57-3.8684-2.1763h-.0053a2.859,2.859,0,0,0-2.2827,2.1763c-.1915.9684-.3777,1.9315-.5693,2.9-9.3756-.08-18.1711-.2447-26.0622-.4682-5.5763-.16-10.7058-.3512-15.2712-.564-14.1271-.6811-22.8589-1.6123-22.8589-2.6392,0-1.0217,8.7318-1.9582,22.8589-2.6339,2.6659-.1277,5.5232-.2448,8.5509-.3512,9.434-.34,20.5176-.58,32.575-.6864,4.7144-.0426,9.5724-.0638,14.5422-.0638,11.5306,0,22.4758.117,32.3409.33C211.0641,57.921,230.0121,59.2246,230.0121,60.7358Z"/><path class="cls-3" d="M121.3418,71.7023c4.6559-.0638,9.4714-.1117,14.42-.1437q-.7263,3.68-1.442,7.3536c-.3512,0-.7024-.0053-1.0482-.0053-1.9741-.0159-3.9322-.0319-5.8584-.0532-.1863-.7237-.3725-1.4526-.5587-2.1763a3.2311,3.2311,0,0,0-5.8371-.7609c-.5694.9418-1.1387,1.889-1.7081,2.8308-8.471-.1224-16.3673-.2927-23.4868-.5C72.8731,77.566,58.001,76.47,58.001,75.2407s14.8721-2.3252,37.8214-3.0063c7.6835-.2235,16.2716-.4044,25.5141-.5321Z"/><path class="cls-4" d="M244.6608,75.2407c0,1.08-11.3816,2.0486-29.5953,2.73H215.06c-10.0141.3725-22.0874.66-35.4749.83-8.9127.1117-18.4053.1756-28.2544.1756-1.7028,0-3.39,0-5.0709-.0053q-.5109-3.7274-1.0163-7.4547c2.0113-.0107,4.0439-.0107,6.0872-.0107q4.8127,0,9.5032.0213c18.3361.0745,35.1078.3618,48.7508.7982h.0053C230.9646,73.006,244.6608,74.06,244.6608,75.2407Z"/><path class="cls-5" d="M116.7836,82.9315q-2.895,4.8-5.8,9.6-7.83-.1051-15.16-.24c-41.3-.81-69.87-2.54-69.87-4.53,0-2,28.57-3.72,69.87-4.52C102.4936,83.1115,109.5036,83.0015,116.7836,82.9315Z"/><path class="cls-6" d="M122.5923,85.7869q.8859,3.44,1.7612,6.8854c-1.9634-.016-3.9162-.032-5.8424-.0532C119.9,90.363,121.2461,88.0749,122.5923,85.7869Z"/><path class="cls-7" d="M128.4294,82.8231c1.7027-.0106,3.4107-.0212,5.1347-.0266q-.9737,4.9646-1.9421,9.9237h-.66Q129.693,87.7717,128.4294,82.8231Z"/><path class="cls-8" d="M140.3856,82.77q.6784,4.9965,1.3622,9.9875-1.8278,0-3.64-.0053.9738-4.9884,1.9528-9.9822Z"/><path class="cls-9" d="M169.5765,92.2359l.5746.447c-.7289.0107-1.4526.016-2.1815.016.2447-.2182.4948-.431.74-.6492.1011-.0851.1969-.1756.298-.2607C169.1987,91.938,169.3849,92.087,169.5765,92.2359Z"/><path class="cls-10" d="M270.2281,87.761c0,1.6868-20.3688,3.1766-51.5763,4.0865l-1.1014.0319q-2.9931.0879-6.1138.165c-9.5777.2394-20.0228.4257-31.0958.5427h-.0053q-4.5973-3.5837-9.2-7.1727a3.3049,3.3049,0,0,0-4.5122,0q-2.73,2.3865-5.4486,4.7676c-.25.2182-.5055.4417-.7556.66a8.4558,8.4558,0,0,0-5.5711,1.9209q-3.3282.008-6.71.0053-.5029-3.6874-1.0057-7.38c-.117-.8779-.2394-1.7505-.3565-2.6285H148.09c18.5542,0,36.1347.17,51.8848.4736h.0213c6.22.117,12.1531.2607,17.7455.42C249.4656,84.5578,270.2281,86.0583,270.2281,87.761Z"/><path class="cls-11" d="M128.4436,108.6115c-11.57-.08-22.53-.24-32.62-.48-36.47-.82-61.44-2.51-61.44-4.45,0-1.95,24.97-3.63,61.44-4.46,3.16-.07,6.42-.14,9.74-.2q3.57-.06,7.26-.11,6.39-.09,13.09-.15l2.16,8.43C128.1936,107.6615,128.3136,108.1415,128.4436,108.6115Z"/><path class="cls-12" d="M142.5512,98.68q.6864,4.9964,1.3622,9.9981-4.5094,0-8.9179-.0213.9737-4.98,1.9475-9.9609C138.8,98.685,140.673,98.68,142.5512,98.68Z"/><path class="cls-13" d="M148.9417,98.6743c1.2345,0,2.469.0054,3.6928.0054-.5108,2.2827-.9258,4.6026-1.426,6.8747q-.3352,1.5564-.6811,3.1234a1.5728,1.5728,0,0,1-.2235,0Q149.6175,103.6734,148.9417,98.6743Z"/><path class="cls-14" d="M259.73,103.6814c0,1.7293-19.794,3.2564-49.8789,4.1556-5.7572.17-11.8923.3193-18.3414.4417-10.727.2075-22.3161.3352-34.4533.3831.7237-3.315,1.4473-6.6193,2.171-9.9343,0-.0106.0053-.0159.0053-.0266q9.905.048,19.2353.17h.0054c6.4809.0851,12.7171.1916,18.6606.3246h.1011c4.3366.0958,8.5136.2022,12.5043.3192h.0053c2.3413.0745,4.6186.1437,6.8268.2235C242.8516,100.6591,259.73,102.08,259.73,103.6814Z"/><path class="cls-15" d="M144.43,112.4716c.3192,2.2987.6278,4.6026.9418,6.9013-18.3521-.0159-35.3739-.2394-49.549-.6013-24.3168-.6225-40.28-1.6654-40.28-2.852s15.963-2.2348,40.28-2.852C109.7581,112.7111,126.4394,112.4929,144.43,112.4716Z"/><path class="cls-16" d="M239.84,115.92c0,1.3143-19.56,2.453-48.3624,3.0383a.0052.0052,0,0,1-.0053.0053c-11.0783.2182-23.524.3618-36.7467.3991l1.5006-6.88c16.8621.0585,32.41.2873,45.4039.6385C224.7816,113.7433,239.84,114.765,239.84,115.92Z"/><path class="cls-17" d="M218.21,129.0039c0,1.57-21.2892,2.8893-50.4694,3.315-6.0234.0851-12.3873.133-18.964.1383h-1.0855c-12.9193,0-25.03-.17-35.443-.4682h-.0106c-6.1138-.1756-11.6477-.3938-16.4153-.6439-11.5784-.6119-18.6446-1.442-18.6446-2.3412s7.0662-1.724,18.6446-2.3359c12.5788-.6705,30.4733-1.0961,50.395-1.1174.1277.9418.2554,1.8783.3831,2.82.431,3.166,5.5179,2.9212,6.1564,0,.2022-.9365.41-1.873.6119-2.8095,7.79.0319,15.2233.1224,22.098.2661h.0106q1.7081.04,3.3682.08C202.1675,126.4711,218.21,127.6471,218.21,129.0039Z"/><path class="cls-18" d="M187.5366,120.89,128.83,154.7851a22.0034,22.0034,0,0,1-33.006-19.0545v-8.9552c17.6337,8.3008,43.9778,9.5512,71.2425,1.7507A137.3372,137.3372,0,0,0,187.5366,120.89Z"/><path class="cls-19" d="M218.7136,90.2315q0,.81-.06,1.62a22.3545,22.3545,0,0,1-2.08,7.89,21.8548,21.8548,0,0,1-2.41,3.89,21.5378,21.5378,0,0,1-4.31,4.21,21.2393,21.2393,0,0,1-2.14,1.39l-2.26,1.31q-1.86,1.32-3.82,2.58-4.8,3.09-10.16,5.84c-1.29.66-2.6,1.3-3.94,1.93-.4.18-.8.37-1.2.55-.29.14-.59.27-.89.4-.27.13-.55.25-.82.37-.46.2-.93.4-1.39.6-.05.02-.1.04-.16.06-.24.1-.48.21-.72.31s-.47.2-.72.29c-.38.16-.75.31-1.13.46-.34.14-.68.28-1.02.41-.04.01-.07.03-.11.04a.6943.6943,0,0,1-.13.05.88.88,0,0,1-.15.05c-.72.28-1.43.55-2.15.82-.01,0-.02.01-.03.01-.48.18-.96.35-1.44.52h-.01c-.39.14-.78.27-1.17.41-.18.06-.36.13-.55.19-.14.05-.29.1-.44.15-.03.01-.07.02-.1.03-.38.13-.76.26-1.15.38-.17.06-.34.11-.51.17-.59.19-1.18.38-1.78.56a.0367.0367,0,0,1-.03.01c-.33.1-.67.21-1,.3-.56.17-1.11.33-1.67.49-.39.12-.77.22-1.16.33s-.77.21-1.16.31c-.38.11-.77.21-1.15.31-.39.1-.78.2-1.16.29-.76.19-1.53.38-2.3.56s-1.54.35-2.3.51c-.36.08-.72.15-1.07.23-.37.08-.73.15-1.09.22-.76.15-1.51.29-2.26.42-.09.02-.17.03-.26.05-.34.06-.69.12-1.04.18-.69.12-1.38.23-2.08.33-.34.06-.69.11-1.03.16-.08.01-.15.03-.23.04h-.03c-.75.1-1.5.2-2.24.3-.75.09-1.49.18-2.23.26-1.48.16-2.96.29-4.41.4q-2.19.165-4.35.24c-.72.02-1.43.05-2.14.06h-.01c-.7.01-1.41.02-2.11.02-.53,0-1.05-.01-1.57-.01-.28-.01-.56-.01-.84-.02-.17,0-.34-.01-.51-.01-.15,0-.3-.01-.45-.02-.95-.02-1.9-.06-2.83-.12-.17-.01-.35-.01-.52-.03-.13,0-.26-.01-.39-.02s-.25-.02-.37-.03c-.2-.01-.4-.02-.59-.04-.21-.02-.42-.03-.62-.05a2.4519,2.4519,0,0,1-.27-.02c-.31-.03-.63-.05-.94-.08-.8-.08-1.59-.16-2.38-.25-.6-.07-1.2-.15-1.79-.23a.22.22,0,0,0-.08-.01c-.15-.02-.3-.04-.45-.07a.1949.1949,0,0,1-.08-.01c-.3-.04-.6-.09-.9-.13-.29-.05-.57-.1-.86-.14-.11-.02-.23-.04-.34-.06-.1-.02-.19-.03-.28-.04a2.9311,2.9311,0,0,0-.29-.05c-.11-.02-.22-.04-.33-.07a1.7129,1.7129,0,0,1-.22-.04c-.38-.06-.74-.13-1.11-.2h-.02c-.56-.11-1.11-.23-1.67-.35l-.15-.03c-.27-.06-.55-.12-.82-.18-.27-.07-.55-.13-.82-.19-.29-.07-.59-.15-.88-.22a.7436.7436,0,0,0-.14-.04c-.33-.08-.67-.17-1-.26-.16-.04-.32-.09-.47-.13-.2-.06-.4-.11-.6-.17-.03-.01-.06-.01-.09-.02-.67-.2-1.34-.4-1.99-.6-.03-.01-.05-.02-.08-.03-.47-.15-.93-.3-1.4-.46-.07-.02-.13-.05-.19-.07-.34-.11-.67-.23-1-.36-.14-.04-.27-.09-.4-.14-.32-.12-.65-.24-.97-.37-.52-.2-1.04-.41-1.55-.63-.18-.07-.36-.15-.54-.23-.55-.24-1.1-.49-1.64-.74v-27.55c3.16-.07,6.42-.14,9.74-.2.16.01.31.01.48.03a132.3977,132.3977,0,0,0,22.03,8.14c.12.47.24.95.37,1.42.07.31.15.6.23.91.75,2.93,5.53,3.15,6.15,0l.12-.63c3.11.7,6.19,1.27,9.24,1.73.08.62.17,1.23.25,1.85.32,2.3.62,4.6.94,6.9l.12.9.72,5.28.39,2.82c.43,3.17,5.51,2.92,6.15,0,.21-.94.41-1.87.62-2.81q.675-3.09,1.35-6.2l1.5-6.88c.05-.2.09-.39.13-.58,2.38.13,4.73.2,7.03.2.64,0,1.28-.01,1.91-.02s1.27-.02,1.89-.05c.64-.01,1.26-.04,1.88-.07.44-.02.87-.05,1.31-.08.17-.01.34-.02.5-.03.28-.01.56-.04.83-.06.13-.01.27-.01.4-.02.23-.02.47-.04.71-.06.41-.03.81-.07,1.21-.11.07-.01.14-.01.21-.02.12-.01.23-.03.35-.04.23-.02.45-.04.68-.06.62-.07,1.23-.14,1.83-.22a.09.09,0,0,0,.05-.01c.5-.05.99-.12,1.48-.2.03,0,.07-.01.1-.01q.825-.12,1.62-.24c.44-.07.88-.14,1.31-.22.49-.08.98-.17,1.46-.26q.375-.0751.75-.15c.23-.05.46-.09.69-.14.2-.04.4-.09.6-.13l1.23-.27c.41-.1.83-.19,1.23-.29.34-.08.67-.17,1-.25l1.32-.36a.744.744,0,0,0,.14-.04.2353.2353,0,0,0,.08-.02c.29-.08.58-.16.86-.25.17-.04.33-.09.5-.14a.0365.0365,0,0,1,.03-.01c.43-.13.85-.26,1.27-.4.53-.16,1.06-.34,1.57-.52a1.4161,1.4161,0,0,1,.22-.07c.24-.09.47-.17.71-.25.27-.1.54-.2.81-.31a.8888.8888,0,0,0,.15-.05c.18-.07.38-.14.56-.21.06-.02.11-.05.17-.07.28-.11.57-.22.85-.34.34-.14.69-.28,1.03-.42.35-.15.7-.3,1.04-.46.13-.05.25-.11.38-.17.24-.11.49-.22.73-.34l.39-.18c.37-.18.72-.36,1.08-.54.39-.2.78-.4,1.15-.6.34-.18.68-.37,1.01-.55a.2222.2222,0,0,0,.05-.03c.36-.2.71-.41,1.06-.61.35-.22.69-.42,1.03-.64.34-.21.67-.43,1-.64.33-.22.66-.44.98-.67.17-.12.33-.23.48-.34.16-.11.32-.23.48-.35.29-.21.57-.42.85-.64.35-.27.69-.54,1.02-.83.18-.14.37-.3.55-.45a1.2106,1.2106,0,0,0,.12-.11c.11-.09.22-.19.32-.28.13-.11.26-.22.38-.34.01-.01.02-.01.03-.02.26-.24.51-.48.76-.72.19-.17.36-.35.53-.52.27-.26.52-.52.78-.8l.02-.02c.11-.11.21-.23.32-.34a4.0047,4.0047,0,0,0,.28-.32c.22-.23.41-.46.61-.69.11-.13.22-.26.33-.4.32-.38.61-.76.91-1.15v-.01c.03-.03.05-.07.08-.1.12-.16.25-.33.37-.5a.1285.1285,0,0,1,.04-.06c.09-.12.17-.25.26-.37C218.4436,90.6415,218.5736,90.4415,218.7136,90.2315Z"/><path class="cls-20" d="M128.0729,107.1879a132.763,132.763,0,0,1-22.0342-8.1411c2.0486.0958,4.6825.3778,6.7843-.1383h.0053a4.5262,4.5262,0,0,0,2.8627-1.8251c.9631-1.4686,1.9-2.9638,2.82-4.4643,1.3888-2.2561,2.735-4.5442,4.0812-6.8322q.8859,3.44,1.7612,6.8854.7823,3.0489,1.5644,6.0925Q126.9954,102.9791,128.0729,107.1879Z"/><path class="cls-20" d="M134.2236,79.4115l-.66,3.39q-.975,4.95-1.94,9.92c-.1.49-.19.97-.29,1.46-.12-.49-.25-.97-.37-1.46q-1.275-4.95-2.53-9.9c-.34-1.32-.69-2.64-1.02-3.97-.19-.72-.37-1.45-.56-2.17a3.231,3.231,0,0,0-5.84-.76c-.57.94-1.14,1.88-1.7,2.83q-1.275,2.085-2.53,4.18-2.895,4.8-5.8,9.6-7.83-.1051-15.16-.24v-44.43c.23.31.47.63.71.94.09.12.18.23.26.35l.01.01c.26.33.52.67.79,1,.01.02.03.03.04.05.26.33.53.66.8.98.28.35.57.7.86,1.04l.93,1.08c.3.34.6.67.9,1.01a1.6445,1.6445,0,0,0,.13.14c.32.36.65.71.98,1.07.01.01.01.01.01.02.69.74,1.41,1.47,2.13,2.2.53.53,1.06,1.05,1.6,1.57.54.53,1.1,1.05,1.66,1.56.49.46,1,.92,1.51,1.37.2.18.4.35.6.53.34.3.69.6,1.04.89l.03.03c.09.08.18.16.28.24.73.63,1.48,1.24,2.25,1.85a4.289,4.289,0,0,0,.35.28c.55.44,1.11.88,1.67,1.32.06.04.11.08.17.12,1.05.81,2.12,1.6,3.22,2.39.1.08.21.15.32.23.4.28.8.55,1.2.84.36.25.71.49,1.06.73h.01c.47.32.93.64,1.41.95s.96.63,1.45.93c.37.24.74.48,1.12.72,1.46.91,2.95,1.81,4.47,2.68.35.2.71.4,1.06.6.34.19.68.38,1.02.56.45.25.9.5,1.36.74a.138.138,0,0,0,.04.03C133.5836,79.0815,133.9036,79.2415,134.2236,79.4115Z"/><path class="cls-20" d="M144.18,110.6252q-4.5734-.6944-9.2319-1.7293l.0479-.2394q.9737-4.98,1.9475-9.9609c.3884-1.9794.7715-3.9641,1.1652-5.9435q.9738-4.9884,1.9528-9.9822c.0266-.1383.0532-.282.08-.42.0638.0319.133.0638.2022.09.0159.1118.0319.2182.0425.33q.6784,4.9965,1.3622,9.9875.399,2.9611.8034,5.9223.6864,4.9964,1.3622,9.9981C144.0039,109.3269,144.089,109.9761,144.18,110.6252Z"/><path class="cls-20" d="M161.1747,90.182c-.25.2182-.5055.4417-.7556.66a8.4558,8.4558,0,0,0-5.5711,1.9209,4.9315,4.9315,0,0,0-.7768.9525,3.88,3.88,0,0,0-.5162,1.3675c-.0319.0692-.1383.4257-.1862.6013q-.4071,1.4844-.7343,2.9957c-.5108,2.2827-.9258,4.6026-1.426,6.8747q-.3352,1.5564-.6811,3.1234c-.0426.2128-.09.42-.1384.6332-.0266-.2129-.0585-.42-.0851-.6332q-.6864-5.0045-1.3622-10.0035-.399-2.9531-.8034-5.9063-.5029-3.6874-1.0057-7.38A135.5273,135.5273,0,0,0,161.1747,90.182Z"/><path class="cls-20" d="M218.71,90.2352c-.1331.2022-.2714.41-.41.6066-.0851.1225-.17.2448-.2607.3672a.3587.3587,0,0,0-.0372.0585c-.1224.17-.2448.3406-.3725.5055-.0266.0319-.0479.0639-.0745.0958,0,.0053,0,.0106-.0053.0106-.2926.3938-.5906.7769-.91,1.1547-.1064.133-.2181.266-.33.3991-.3937.4629-.8035.9258-1.2291,1.3728-.2554.2714-.5108.5321-.7769.7981-.17.17-.3459.3459-.5268.5162q-.3752.3591-.7662.7183c-.0266.0266-.0532.0479-.0851.0745-.2129.1969-.4257.3831-.6439.5693-.0425.0373-.08.0745-.1223.1064-.181.1544-.3619.3087-.5428.4577-.3352.282-.6757.5533-1.0269.8247-.2767.2182-.5587.431-.8461.6438h-.0053c-.1543.1171-.3139.2342-.4736.3459-.1543.1118-.3139.2235-.4789.3406-.3245.2288-.6491.4522-.979.6651-.33.2181-.6651.4363-1.0057.6491-.3352.2129-.681.42-1.0322.6332-.3459.2022-.6971.41-1.0536.6119a.4694.4694,0,0,1-.0532.032c-.33.1809-.6651.3671-1.0057.548-.3778.2022-.7662.4044-1.1546.6013-.3565.1809-.713.3618-1.08.5374-.1277.0639-.2607.1224-.3937.1863-.2395.117-.4842.2288-.729.3352-.1277.0585-.25.117-.3778.17-.34.16-.6864.3087-1.0376.4577-.34.1436-.6864.2873-1.0323.4256-.282.1171-.564.2288-.8513.3406-.0585.0213-.1118.0425-.17.0638-.1809.0745-.3725.1437-.5587.2128-.0479.0214-.1011.0373-.149.0533q-.4071.16-.8141.3033c-.2341.0851-.4682.1649-.7077.25-.0745.0266-.1436.0479-.2181.0745-.5162.1809-1.0376.3512-1.5644.5215-.42.133-.846.266-1.2717.3937-.0107.0054-.0266.0054-.0373.0107a.0479.0479,0,0,1-.0266.0053c-.4416.133-.8833.2607-1.33.3884-.0266.0054-.0532.016-.08.0213a1.3392,1.3392,0,0,1-.1384.0373c-.4363.1224-.8779.2394-1.32.3565-.5587.1436-1.1174.282-1.6867.415-.1809.0426-.3672.0852-.5481.1277q-.6066.1437-1.2291.2714c-.1969.0426-.3938.0851-.596.1277-.2288.0479-.4576.0958-.6917.1437l-.75.1436c-.4842.0905-.9737.1809-1.4632.2661-.431.0745-.8673.149-1.3036.2181-.5321.0852-1.0749.165-1.6176.2448-.5428.0745-1.0855.149-1.6336.2182-.2873.0372-.5746.0745-.8673.1064-.3246.0372-.6438.0745-.9684.1064-.2235.0266-.447.0479-.6758.0692a2.8951,2.8951,0,0,1-.3086.0319.0907.0907,0,0,0-.0372.0053c-.4736.0426-.9472.0905-1.4261.1277-.2341.0213-.4735.0426-.713.0586-.2128.0159-.431.0319-.6491.0479-.0213,0-.0479.0052-.0692.0052-.3352.0267-.6651.0426-1.0057.0639-.4363.0266-.8726.0532-1.3089.0745-.6173.0319-1.2451.0585-1.8783.0745-.6279.0213-1.2611.0373-1.8943.0479s-1.2664.0159-1.9049.0159q-3.464,0-7.0343-.2022c.1915-.8779.3831-1.7612.5746-2.6392.0426-.1968.0852-.399.1277-.5959.7237-3.315,1.4473-6.6193,2.171-9.9343,0-.0106.0053-.0159.0053-.0266.1011-.431.1916-.8673.2873-1.2983.9525-.1437,3.1235-.3831,3.3416-.4736,1.58-.6651,3.001-2.3837,4.2621-3.49.2767-.2448.5587-.49.8407-.74h.0054c.2447-.2182.4948-.431.74-.6492.2926.0639.58.1277.8673.1862l.5746.447q1.62,1.261,3.2352,2.5222c1.4952,1.1652,3.2032,2.9318,5.0815,3.6661h.0054a4.709,4.709,0,0,0,1.49.3246c5.6988.2341,11.4561.0053,17.1708,0h.2182c2.8893,0,3.746-3.1554,2.57-5.0283.4363-.0426.8673-.0905,1.2983-.1437.3246-.0372.6492-.0745.9684-.1171l.4789-.0638c.3725-.0532.74-.1064,1.1068-.165.3991-.0585.7928-.1223,1.1866-.1915a.7842.7842,0,0,0,.1543-.0266q.5826-.0959,1.1493-.2075c.41-.0745.82-.16,1.2239-.2448.4416-.09.8726-.1862,1.3036-.2873.4363-.1011.862-.2022,1.2877-.314l.6864-.1756c.2234-.0638.4469-.1224.67-.1862.2554-.0692.5108-.1437.7609-.2182.3831-.1117.7609-.2235,1.1334-.3458a.2329.2329,0,0,0,.0266-.0054c.3671-.117.7289-.2394,1.0908-.3618.2607-.09.5214-.1809.7768-.2714a.4789.4789,0,0,1,.08-.0266c.165-.0638.33-.1223.4949-.1862a.7134.7134,0,0,0,.0958-.0372q.3591-.1278.7183-.2714c.3033-.1171.6013-.2394.8939-.3618.1065-.0426.2076-.0852.3087-.1277.2979-.1224.5906-.2554.8832-.3831C218.71,89.7085,218.71,89.9745,218.71,90.2352Z"/><path class="cls-21" d="M140.0078,59.331a2.859,2.859,0,0,0-2.2827,2.1763c-.1915.9684-.3777,1.9315-.5693,2.9q-.7024,3.5757-1.3941,7.1514-.7263,3.68-1.442,7.3536c-.0319.165-.0638.3353-.0958.5-.3192-.17-.6385-.3352-.9524-.5055a.2256.2256,0,0,1-.0373-.0213c-.4576-.2447-.91-.4895-1.3568-.74-.3991-.2128-.7928-.4363-1.1866-.66-.0053-.0053-.0106-.0053-.016-.0106-.2926-.16-.5853-.33-.8779-.4949q-2.2827-1.3089-4.475-2.6817c-.3777-.2342-.75-.4736-1.1227-.7131-.4842-.3086-.9631-.6225-1.442-.9365-.4789-.3086-.9471-.6278-1.4154-.9471h-.0053c-.3565-.2394-.7077-.4842-1.0588-.7343-.4044-.282-.8035-.5587-1.2026-.8407-.1117-.0745-.2181-.149-.3246-.2288q-1.6442-1.1733-3.2191-2.3838c-.0533-.0426-.1118-.0851-.165-.1277-.3725-.282-.7449-.5693-1.1121-.8673-.1543-.1171-.3033-.24-.4576-.3619-.1543-.117-.3033-.2394-.4523-.3618q-1.1493-.9179-2.2508-1.857c-.0957-.0745-.1862-.1543-.2819-.2395-.0107-.0106-.0214-.0159-.032-.0266-.3459-.2926-.6917-.5959-1.0376-.8939q-.5826-.5028-1.1493-1.0216c-1.4686-1.3143-2.8733-2.6552-4.2195-4.0067-.3565-.3565-.7077-.7183-1.0536-1.08-.3671-.3778-.729-.7556-1.0855-1.1387-.33-.3565-.66-.7131-.9844-1.07l-.1277-.1436q-.455-.5028-.8939-1.0057c-.3139-.3618-.6278-.7183-.9311-1.08-.2927-.3458-.58-.6917-.8674-1.0375-.266-.3246-.5321-.6492-.7928-.9791-.016-.0213-.0319-.0372-.0479-.0585-.266-.33-.5268-.6651-.7822-1q-.1435-.1755-.2713-.3512c-.2448-.3192-.4789-.6332-.7131-.9471V44.6345a21.8747,21.8747,0,0,1,13.675-20.3687q1.0136,2.3466,2.288,4.6931c.17.3086.3405.6226.5161.9312.4789.8513.99,1.7027,1.5218,2.554.16.2661.33.5375.5055.8035.3246.5055.6545,1.0057.995,1.5059.1862.2766.3725.548.5694.8194.1383.2022.2766.4044.4256.6066q.5667.7981,1.1653,1.5963c.2022.2767.4151.5533.6332.83q.3991.5189.8141,1.0376c.16.2076.33.4151.5.6279.2235.2767.4523.5481.6811.8248.2235.2767.4576.5533.6971.8247.2287.2714.4682.5481.7023.8194.3618.4151.729.8248,1.1015,1.2345.3086.34.6172.6758.9365,1.0163.3139.3352.6331.67.9577,1.011q.7743.8061,1.58,1.6069c.5321.5321,1.08,1.0642,1.6336,1.591q.83.7981,1.6921,1.575c.0106.0107.0266.0213.0372.0319.2661.2395.5268.4789.7982.7237q3.1607,2.8254,6.6778,5.5178c.0053.0054.016.0107.0213.016.2288.17.4522.3459.681.5214Q138.7947,58.4638,140.0078,59.331Z"/><path class="cls-21" d="M140.2526,81.7643c.0319.2234.0638.4523.09.6757-.0692-.0266-.1384-.0585-.2022-.09C140.1781,82.1527,140.2153,81.9611,140.2526,81.7643Z"/><path class="cls-21" d="M169.5765,92.2359c-.2874-.0585-.5747-.1223-.8673-.1862.1011-.0851.1969-.1756.298-.2607C169.1987,91.938,169.3849,92.087,169.5765,92.2359Z"/><path class="cls-21" d="M218.7,89.4478c-.2926.1277-.5853.2607-.8832.3831-.1011.0425-.2022.0851-.3087.1277-.2926.1224-.5906.2447-.8939.3618q-.3591.1437-.7183.2714a.7134.7134,0,0,1-.0958.0372c-.1649.0639-.33.1224-.4949.1862a.4789.4789,0,0,0-.08.0266c-.2554.09-.5161.181-.7768.2714-.3619.1224-.7237.2448-1.0908.3618a.2329.2329,0,0,1-.0266.0054c-.3725.1223-.75.2341-1.1334.3458-.25.0745-.5055.149-.7609.2182-.2235.0638-.447.1224-.67.1862l-.6864.1756c-.4257.1118-.8514.2129-1.2877.314-.431.1011-.862.1968-1.3036.2873-.4044.0851-.8142.17-1.2239.2448q-.5667.1118-1.1493.2075a.7842.7842,0,0,1-.1543.0266c-.3938.0692-.7875.133-1.1866.1915-.3672.0586-.7343.1118-1.1068.165l-.4789.0638c-.3192.0426-.6438.08-.9684.1171-.431.0532-.862.1011-1.2983.1437a2.8866,2.8866,0,0,0-2.57-1.3569H180.6228c-.0958-.0745-.1862-.149-.282-.2235h-.0053q-4.5973-3.5837-9.2-7.1727a3.3049,3.3049,0,0,0-4.5122,0q-2.73,2.3865-5.4486,4.7676a135.5273,135.5273,0,0,1-14.0421-4.7942c-.117-.8779-.2394-1.7505-.3565-2.6285-.1756-1.2611-.3458-2.5275-.5161-3.7885q-.5109-3.7274-1.0163-7.4547c-.0852-.6332-.1756-1.2717-.2608-1.9049l-.7023-5.1561c-.1065-.8034-.2182-1.6016-.3246-2.405.4363.2873.878.5746,1.3249.8673.3033.1915.6066.3831.9152.58.431.2714.862.5428,1.2984.8088l.2607.16.7289.4469,1.1174.6705q3.1128,1.8357,6.4118,3.5544c.3885.2075.7822.41,1.176.6066.4682.2394.9418.4735,1.4153.7077.3246.1649.6492.3246.9791.4789.415.2022.83.399,1.25.5959.3406.165.6811.3246,1.027.4789.4576.2182.9205.431,1.3834.6385.7077.3193,1.41.6279,2.1178.9259q.6384.2793,1.277.5427c.5481.2394,1.1015.4629,1.65.6811.4576.1915.9152.3725,1.3728.548.41.165.8194.3246,1.2345.4789.7875.3033,1.57.5907,2.3572.8727q.2474.0957.4948.1756c.8461.3086,1.6921.5959,2.5381.8779.3086.1065.6173.2076.9206.3033q1.1892.3912,2.3785.75a.3507.3507,0,0,0,.1064.0319c.399.1224.7981.2395,1.1972.3618.2022.0586.4044.1171.6012.1756.66.1916,1.32.3778,1.9741.5534.298.08.5907.16.8833.2342q2.3226.6225,4.6293,1.1333c.3512.08.7023.16,1.0482.2341q3.1447.6784,6.2308,1.1706c.8354.1331,1.6655.2555,2.4956.3725.3459.0479.697.0958,1.0376.1384.0638.0106.1277.0159.1862.0266h.0213c.2341.0319.4683.0585.6971.0851.2341.0266.4682.0585.697.08q.3592.0478.7183.08c.3831.0426.7662.08,1.1494.1171.5427.0532,1.08.1011,1.6175.1437.4576.0372.91.0691,1.3675.1011a2.1528,2.1528,0,0,0,.2608.0159c.2607.0213.5214.0319.7822.0479s.5214.0319.7768.0426q.79.04,1.58.0638c.3565.0107.713.0213,1.07.0266l.9152.016c2.1071.0319,4.1716-.016,6.1936-.133A22.1584,22.1584,0,0,1,218.7,89.4478Z"/><path class="cls-22" d="M217.8218,83.9193c-2.022.117-4.0865.1649-6.1936.133l-.9152-.016c-.3566-.0053-.7131-.0159-1.07-.0266q-.79-.0238-1.58-.0638c-.2554-.0107-.5161-.0266-.7768-.0426s-.5215-.0266-.7822-.0479a2.1528,2.1528,0,0,1-.2608-.0159c-.4576-.032-.91-.0639-1.3675-.1011-.5374-.0426-1.0748-.09-1.6175-.1437-.3832-.0373-.7663-.0745-1.1494-.1171q-.3591-.0319-.7183-.08c-.2288-.0213-.4629-.0532-.697-.08-.2288-.0266-.463-.0532-.6971-.0851h-.0213c-.0585-.0107-.1224-.016-.1862-.0266-.3406-.0426-.6917-.0905-1.0376-.1384-.83-.117-1.66-.2394-2.4956-.3725q-3.0888-.4868-6.2308-1.1706c-.3459-.0745-.697-.1543-1.0482-.2341q-2.3067-.5108-4.6293-1.1333c-.2926-.0746-.5853-.1544-.8833-.2342-.6544-.1756-1.3143-.3618-1.9741-.5534-.1968-.0585-.399-.117-.6012-.1756-.3991-.1223-.7982-.2394-1.1972-.3618a.3507.3507,0,0,1-.1064-.0319q-1.1894-.3591-2.3785-.75c-.3033-.0957-.612-.1968-.9206-.3033-.846-.282-1.692-.5693-2.5381-.8779q-.2473-.08-.4948-.1756c-.7875-.282-1.57-.5694-2.3572-.8727-.4151-.1543-.8247-.3139-1.2345-.4789-.4576-.1755-.9152-.3565-1.3728-.548-.548-.2182-1.1014-.4417-1.65-.6811q-.6385-.2634-1.277-.5427c-.7077-.298-1.41-.6066-2.1178-.9259-.4629-.2075-.9258-.42-1.3834-.6385-.3459-.1543-.6864-.3139-1.027-.4789-.42-.1969-.8354-.3937-1.25-.5959-.33-.1543-.6545-.314-.9791-.4789-.4735-.2342-.9471-.4683-1.4153-.7077-.3938-.1969-.7875-.3991-1.176-.6066q-3.2964-1.716-6.4118-3.5544l-1.1174-.6705-.7289-.4469-.2607-.16c-.4364-.266-.8674-.5374-1.2984-.8088-.3086-.1968-.6119-.3884-.9152-.58-.4469-.2927-.8886-.58-1.3249-.8673-.0266-.181-.0479-.3619-.0745-.5428-.2554-1.8783-2.2135-2.57-3.8684-2.1763h-.0053q-1.2132-.87-2.3785-1.7453c-.2288-.1755-.4522-.3511-.681-.5214-.0053-.0053-.016-.0106-.0213-.016q-3.5118-2.69-6.6778-5.5178c-.2714-.2448-.5321-.4842-.7982-.7237-.0106-.0106-.0266-.0212-.0372-.0319q-.8621-.7821-1.6921-1.575c-.5534-.5268-1.1015-1.0589-1.6336-1.591q-.8061-.7981-1.58-1.6069c-.3246-.3405-.6438-.6758-.9577-1.011-.3193-.34-.6279-.6758-.9365-1.0163-.3725-.41-.74-.8194-1.1015-1.2345-.2341-.2713-.4736-.548-.7023-.8194-.2342-.2714-.4683-.548-.6971-.8247s-.4576-.5481-.6811-.8248c-.17-.2128-.3352-.42-.5-.6279q-.4149-.5187-.8141-1.0376c-.2128-.2767-.4256-.5533-.6332-.83q-.5985-.7981-1.1653-1.5963c-.149-.2022-.2873-.4044-.4256-.6066-.1969-.2714-.3832-.5428-.5694-.8194-.3405-.5-.67-1-.995-1.5059-.1756-.266-.3459-.5374-.5055-.8035-.5321-.8513-1.0429-1.7027-1.5218-2.554-.1756-.3086-.3459-.6226-.5161-.9312q-1.2691-2.3466-2.288-4.6931a21.7115,21.7115,0,0,1,19.3311,1.309l31.2288,18.0274,12.483,7.21L183.8314,57.33l11.2751,6.5128,12.6108,7.2791c.6491.3778,1.2716.7769,1.8676,1.2026h.0053a21.8214,21.8214,0,0,1,5.47,5.6455h.0053a21.7472,21.7472,0,0,1,2.6765,5.6828C217.7685,83.7437,217.7952,83.8288,217.8218,83.9193Z"/><path class="cls-23" d="M318.6843,49.3818H299.4831V113.386h11.5206V93.3847h7.6806a21.94,21.94,0,0,0,21.9214-22.0015,22.0086,22.0086,0,0,0-21.9214-22.0014Zm-7.6806,11.521h7.6505a10.4024,10.4024,0,0,1,7.5044,3.062,10.6063,10.6063,0,0,1-.0078,14.8049,10.3052,10.3052,0,0,1-7.4665,3.0939h-7.6806Z"/><path class="cls-23" d="M359.3007,98.8507a9.96,9.96,0,0,1-3.0143-7.3865V49.3818H344.6056V91.4642a21.1012,21.1012,0,0,0,6.4758,15.5448,21.4081,21.4081,0,0,0,15.5256,6.377h2V101.8649h-2A9.8661,9.8661,0,0,1,359.3007,98.8507Z"/><path class="cls-23" d="M391.0082,69.3034a22.0767,22.0767,0,0,0-22.0014,22.0811,22.0767,22.0767,0,0,0,22.0014,22.0812,21.7258,21.7258,0,0,0,10.4808-2.6338v2.6338H413.01V91.3845a22.0769,22.0769,0,0,0-22.0015-22.0811Zm0,11.6008a10.4736,10.4736,0,0,1,7.4189,17.8738l0,.0008a10.46,10.46,0,1,1-14.8049-14.7807A9.9968,9.9968,0,0,1,391.0082,80.9042Z"/><path class="cls-23" d="M449.4914,91.3845a9.9964,9.9964,0,0,1-3.0225,7.3544,9.89,9.89,0,0,1-7.3782,3.0463,10.09,10.09,0,0,1-7.4345-3.022,9.8924,9.8924,0,0,1-3.0463-7.3787V69.3831H417.0971l-.0879,22.0014a22.165,22.165,0,0,0,16.321,21.353v16.65h11.5206V112.7383a22.0036,22.0036,0,0,0,16.2414-21.3538V69.3831H449.4914Z"/><path class="cls-23" d="M519.4155,69.4628a21.4756,21.4756,0,0,0-10.135,2.472,21.8515,21.8515,0,0,0-6.0477,4.6816,21.9764,21.9764,0,0,0-31.76-.7219,21.3678,21.3678,0,0,0-6.3813,15.57V113.386h11.6008V91.4642a10.3683,10.3683,0,0,1,20.7213-.59V113.386h11.5207V90.8744a9.8731,9.8731,0,0,1,3.2134-6.9568,10.5651,10.5651,0,0,1,14.6612.2087,9.8662,9.8662,0,0,1,3.0869,7.3379V113.386h11.4414V91.4642a21.8745,21.8745,0,0,0-21.9222-22.0014Z"/><path class="cls-23" d="M577.819,91.3845a9.9961,9.9961,0,0,1-3.0221,7.3544,9.89,9.89,0,0,1-7.3786,3.0463,10.0891,10.0891,0,0,1-7.4341-3.022,9.8909,9.8909,0,0,1-3.0463-7.3787V69.3831H545.4247l-.0875,22.0014a22.1648,22.1648,0,0,0,16.3213,21.353v16.65h11.52V112.7383A22.0037,22.0037,0,0,0,589.42,91.3845V69.3831H577.819Z"/><path class="cls-23" d="M615.4113,69.1432a21.5479,21.5479,0,0,0-10.47,2.7119V49.3607l-11.5289.1219.168,41.9207a21.442,21.442,0,0,0,6.5957,15.5659,21.1679,21.1679,0,0,0,15.3456,6.3379c.08,0,.16,0,.24-.0008A22.15,22.15,0,0,0,637.5831,90.965a22.01,22.01,0,0,0-22.1718-21.8218Zm-7.1364,29.5481a10.2756,10.2756,0,0,1-3.1744-7.4177,9.7844,9.7844,0,0,1,2.9822-7.363,10.2347,10.2347,0,0,1,7.4489-3.1666c.0633-.0016.1266-.0016.1891-.0016a9.8361,9.8361,0,0,1,7.1825,2.951,10.104,10.104,0,0,1,3.1588,7.4013,9.8606,9.8606,0,0,1-3.0221,7.4044,10.2161,10.2161,0,0,1-7.41,3.2064A9.6442,9.6442,0,0,1,608.2749,98.6913Z"/><path class="cls-23" d="M645.5586,75.939a22.0415,22.0415,0,0,0,.0047,31.0161,21.168,21.168,0,0,0,15.5409,6.4309h21.9209V101.7852H661.1042a9.9936,9.9936,0,0,1-7.3544-3.022,10.3141,10.3141,0,0,1-.0321-14.6049,9.96,9.96,0,0,1,7.3865-3.0143h21.9209V69.4628H661.1042A21.1033,21.1033,0,0,0,645.5586,75.939Z"/><path class="cls-23" d="M657.0094,87.2905a5.7607,5.7607,0,0,0,4.0948,9.8546h12.0007V85.624H661.1042A5.6636,5.6636,0,0,0,657.0094,87.2905Z"/><path class="cls-23" d="M705.8266,69.3034a22.0767,22.0767,0,0,0-22.0014,22.0811,22.0767,22.0767,0,0,0,22.0014,22.0812,21.7321,21.7321,0,0,0,10.48-2.6338v2.6338h11.5211V91.3845a22.0769,22.0769,0,0,0-22.0015-22.0811Zm0,11.6008a10.4736,10.4736,0,0,1,7.4185,17.8738v.0008A10.46,10.46,0,1,1,698.44,83.9981,9.9961,9.9961,0,0,1,705.8266,80.9042Z"/><path class="cls-23" d="M755.8292,80.9042V69.3831H743.3486V49.3818h-11.521V91.7049a20.7881,20.7881,0,0,0,6.4809,15.3494,21.4833,21.4833,0,0,0,15.52,6.3317h2V101.8649h-2a10.5659,10.5659,0,0,1-10.48-10.48v-10.48Z"/></svg>