<svg id="Layer_1" data-name="Layer 1" xmlns="http://www.w3.org/2000/svg" xmlns:xlink="http://www.w3.org/1999/xlink" viewBox="0 0 506.5776 287.5957"><defs><style>.cls-1{fill:url(#linear-gradient);}.cls-2{fill:url(#linear-gradient-2);}.cls-3{fill:url(#linear-gradient-3);}.cls-4{fill:url(#linear-gradient-4);}.cls-5{fill:url(#linear-gradient-5);}.cls-6{fill:url(#linear-gradient-6);}.cls-7{fill:url(#linear-gradient-7);}.cls-8{fill:url(#linear-gradient-8);}.cls-9{fill:url(#linear-gradient-9);}.cls-10{fill:url(#linear-gradient-10);}.cls-11{fill:url(#linear-gradient-11);}.cls-12{fill:url(#linear-gradient-12);}.cls-13{fill:url(#linear-gradient-13);}.cls-14{fill:url(#linear-gradient-14);}.cls-15{fill:url(#linear-gradient-15);}.cls-16{fill:url(#linear-gradient-16);}.cls-17{fill:url(#linear-gradient-17);}.cls-18{fill:#8c468f;}.cls-19{fill:#ae5597;}.cls-20{fill:#d6528e;}.cls-21{fill:#ef6947;}.cls-22{fill:#ee9b46;}</style><linearGradient id="linear-gradient" x1="141.4583" y1="63.2084" x2="376.3519" y2="63.2084" gradientUnits="userSpaceOnUse"><stop offset="0" stop-color="#fa4f73"/><stop offset="1" stop-color="#ee9b31"/></linearGradient><linearGradient id="linear-gradient-2" x1="112.0938" y1="88.4601" x2="407.2438" y2="88.4601" gradientUnits="userSpaceOnUse"><stop offset="0" stop-color="#e55173"/><stop offset="1" stop-color="#e79b3d"/></linearGradient><linearGradient id="linear-gradient-3" x1="83.9738" y1="115.7101" x2="230.1138" y2="115.7101" gradientUnits="userSpaceOnUse"><stop offset="0" stop-color="#e9487e"/><stop offset="1" stop-color="#f07b36"/></linearGradient><linearGradient id="linear-gradient-4" x1="247.9338" y1="115.7201" x2="434.7738" y2="115.7201" xlink:href="#linear-gradient-3"/><linearGradient id="linear-gradient-5" x1="23.7488" y1="139.1952" x2="194.4388" y2="139.1952" gradientUnits="userSpaceOnUse"><stop offset="0" stop-color="#de4f8f"/><stop offset="1" stop-color="#f3743d"/></linearGradient><linearGradient id="linear-gradient-6" x1="197.6938" y1="142.0101" x2="208.6738" y2="142.0101" xlink:href="#linear-gradient-5"/><linearGradient id="linear-gradient-7" x1="216.3338" y1="139.2451" x2="225.9838" y2="139.2451" xlink:href="#linear-gradient-5"/><linearGradient id="linear-gradient-8" x1="234.5238" y1="139.2551" x2="241.3638" y2="139.2551" xlink:href="#linear-gradient-5"/><linearGradient id="linear-gradient-9" x1="290.6438" y1="147.6751" x2="294.7438" y2="147.6751" xlink:href="#linear-gradient-5"/><linearGradient id="linear-gradient-10" x1="250.8138" y1="139.2551" x2="482.8238" y2="139.2551" xlink:href="#linear-gradient-5"/><linearGradient id="linear-gradient-11" x1="39.5888" y1="169.1852" x2="216.3488" y2="169.1852" gradientUnits="userSpaceOnUse"><stop offset="0" stop-color="#a64488"/><stop offset="1" stop-color="#cd4f88"/></linearGradient><linearGradient id="linear-gradient-12" x1="228.6738" y1="169.1651" x2="245.4338" y2="169.1651" xlink:href="#linear-gradient-11"/><linearGradient id="linear-gradient-13" x1="254.8838" y1="169.1639" x2="261.8238" y2="169.1639" xlink:href="#linear-gradient-11"/><linearGradient id="linear-gradient-14" x1="270.1338" y1="169.1701" x2="463.0938" y2="169.1701" xlink:href="#linear-gradient-11"/><linearGradient id="linear-gradient-15" x1="79.3538" y1="192.1751" x2="248.1738" y2="192.1751" gradientUnits="userSpaceOnUse"><stop offset="0" stop-color="#9b4898"/><stop offset="0.9955" stop-color="#ab4d99"/></linearGradient><linearGradient id="linear-gradient-16" x1="265.7538" y1="192.1752" x2="425.7138" y2="192.1752" xlink:href="#linear-gradient-15"/><linearGradient id="linear-gradient-17" x1="120.0138" y1="216.7601" x2="385.0638" y2="216.7601" gradientUnits="userSpaceOnUse"><stop offset="0" stop-color="#873f95"/><stop offset="0.9955" stop-color="#7d3888"/></linearGradient></defs><ellipse class="cls-1" cx="258.9051" cy="63.2084" rx="117.4468" ry="7.0213"/><path class="cls-2" d="M407.2438,88.46c0,2.44-26.04,4.58-65.6,5.84-23.45.74-51.64,1.18-81.97,1.18q-3.525,0-7.02-.01-3.285,0-6.53-.02c-.2-1.51-.41-3.01-.61-4.52-.05-.34-.09-.68-.14-1.02-.48-3.53-4.16-4.83-7.27-4.09h-.01a5.3726,5.3726,0,0,0-4.29,4.09c-.36,1.82-.71,3.63-1.07,5.45-17.62-.15-34.15-.46-48.98-.88-10.48-.3-20.12-.66-28.7-1.06-26.55-1.28-42.96-3.03-42.96-4.96,0-1.92,16.41-3.68,42.96-4.95,5.01-.24,10.38-.46,16.07-.66,17.73-.64,38.56-1.09,61.22-1.29,8.86-.08,17.99-.12,27.33-.12,21.67,0,42.24.22,60.78.62C371.6338,83.17,407.2438,85.62,407.2438,88.46Z"/><path class="cls-3" d="M203.0138,109.07c8.75-.12,17.8-.21,27.1-.27q-1.365,6.915-2.71,13.82c-.66,0-1.32-.01-1.97-.01-3.71-.03-7.39-.06-11.01-.1-.35-1.36-.7-2.73-1.05-4.09-1.3-5.08-8.35-5.77-10.97-1.43-1.07,1.77-2.14,3.55-3.21,5.32-15.92-.23-30.76-.55-44.14-.94-43.13-1.28-71.08-3.34-71.08-5.65s27.95-4.37,71.08-5.65c14.44-.42,30.58-.76,47.95-1Z"/><path class="cls-4" d="M434.7738,115.72c0,2.03-21.39,3.85-55.62,5.13h-.01c-18.82.7-41.51,1.24-66.67,1.56-16.75.21-34.59.33-53.1.33-3.2,0-6.37,0-9.53-.01q-.96-7.005-1.91-14.01c3.78-.02,7.6-.02,11.44-.02q9.045,0,17.86.04c34.46.14,65.98.68,91.62,1.5h.01C409.0338,111.52,434.7738,113.5,434.7738,115.72Z"/><path class="cls-5" d="M194.4388,130.17q-5.445,9.03-10.9,18.05-14.7-.1953-28.49-.46c-77.62-1.51-131.3-4.76-131.3-8.51s53.68-6.99,131.3-8.5C167.5988,130.51,180.7788,130.31,194.4388,130.17Z"/><path class="cls-6" d="M205.3638,135.54q1.665,6.465,3.31,12.94c-3.69-.03-7.36-.06-10.98-.1C200.3038,144.14,202.8338,139.84,205.3638,135.54Z"/><path class="cls-7" d="M216.3338,129.97c3.2-.02,6.41-.04,9.65-.05q-1.83,9.33-3.65,18.65h-1.24Q218.7088,139.27,216.3338,129.97Z"/><path class="cls-8" d="M238.8038,129.87q1.275,9.39,2.56,18.77-3.435,0-6.84-.01,1.83-9.375,3.67-18.76Z"/><path class="cls-9" d="M293.6638,147.66l1.08.84c-1.37.02-2.73.03-4.1.03.46-.41.93-.81,1.39-1.22.19-.16.37-.33.56-.49C292.9538,147.1,293.3038,147.38,293.6638,147.66Z"/><path class="cls-10" d="M482.8238,139.25c0,3.17-38.28,5.97-96.93,7.68l-2.07.06q-5.625.165-11.49.31c-18,.45-37.63.8-58.44,1.02h-.01q-8.64-6.7349-17.29-13.48c-2.69-2.1-5.79-2.36-8.48,0q-5.13,4.4851-10.24,8.96c-.47.41-.95.83-1.42,1.24-3.77.18-7.77.99-10.47,3.61q-6.255.015-12.61.01-.945-6.93-1.89-13.87c-.22-1.65-.45-3.29-.67-4.94h2.47c34.87,0,67.91.32,97.51.89h.04c11.69.22,22.84.49,33.35.79C443.8038,133.23,482.8238,136.05,482.8238,139.25Z"/><path class="cls-11" d="M216.3488,178.44c-21.73-.16-42.33-.46-61.3-.9-68.53-1.55-115.46-4.72-115.46-8.37,0-3.66,46.93-6.83,115.46-8.38q8.925-.21,18.31-.37,6.72-.12,13.64-.22h.02q12-.1651,24.59-.27c1.36,5.28,2.7,10.56,4.06,15.83C215.8988,176.65,216.1188,177.55,216.3488,178.44Z"/><path class="cls-12" d="M242.8738,159.77q1.29,9.39,2.56,18.79-8.475,0-16.76-.04l3.66-18.72C235.8238,159.78,239.3438,159.77,242.8738,159.77Z"/><path class="cls-13" d="M254.8838,159.76c2.32,0,4.64.01,6.94.01-.96,4.29-1.74,8.65-2.68,12.92q-.63,2.9252-1.28,5.87a2.9438,2.9438,0,0,1-.42,0Q256.1538,169.1551,254.8838,159.76Z"/><path class="cls-14" d="M463.0938,169.17c0,3.25-37.2,6.12-93.74,7.81-10.82.32-22.35.6-34.47.83-20.16.39-41.94.63-64.75.72,1.36-6.23,2.72-12.44,4.08-18.67,0-.02.01-.03.01-.05q18.615.09,36.15.32h.01c12.18.16,23.9.36,35.07.61h.19c8.15.18,16,.38,23.5.6h.01c4.4.14,8.68.27,12.83.42C431.3738,163.49,463.0938,166.16,463.0938,169.17Z"/><path class="cls-15" d="M246.4038,185.69c.6,4.32,1.18,8.65,1.77,12.97-34.49-.03-66.48-.45-93.12-1.13-45.7-1.17-75.7-3.13-75.7-5.36s30-4.2,75.7-5.36C181.2438,186.14,212.5938,185.73,246.4038,185.69Z"/><path class="cls-16" d="M425.7138,192.17c0,2.47-36.76,4.61-90.89,5.71a.01.01,0,0,1-.01.01c-20.82.41-44.21.68-69.06.75l2.82-12.93c31.69.11,60.91.54,85.33,1.2C397.4138,188.08,425.7138,190,425.7138,192.17Z"/><path class="cls-17" d="M385.0638,216.76c0,2.95-40.01,5.43-94.85,6.23-11.32.16-23.28.25-35.64.26h-2.04c-24.28,0-47.04-.32-66.61-.88h-.02c-11.49-.33-21.89-.74-30.85-1.21-21.76-1.15-35.04-2.71-35.04-4.4s13.28-3.24,35.04-4.39c23.64-1.26,57.27-2.06,94.71-2.1.24,1.77.48,3.53.72,5.3.81,5.95,10.37,5.49,11.57,0,.38-1.76.77-3.52,1.15-5.28,14.64.06,28.61.23,41.53.5h.02q3.21.075,6.33.15C354.9138,212,385.0638,214.21,385.0638,216.76Z"/><path class="cls-18" d="M327.4172,201.5121l-110.33,63.7c-27.57,15.92-62.03-3.98-62.03-35.81v-16.83c33.14,15.6,82.65,17.95,133.89,3.29A258.11,258.11,0,0,0,327.4172,201.5121Z"/><path class="cls-19" d="M385.9988,143.9c0,1.01-.03,2.02-.1,3.03a41.5712,41.5712,0,0,1-3.92,14.83,42.0421,42.0421,0,0,1-4.51,7.32,40.6335,40.6335,0,0,1-8.12,7.9,40.0376,40.0376,0,0,1-4,2.63l-4.25,2.45c-2.33,1.65-4.74,3.27-7.19,4.85q-9.015,5.805-19.08,10.97c0,.01-.02.01-.02.01-2.41,1.24-4.89,2.44-7.39,3.62-.75.35-1.5.7-2.25,1.04-.57.26-1.13.51-1.69.75-.19.09-.38.18-.58.27-.32.14-.64.28-.97.42-.85.38-1.72.76-2.6,1.13-.1.04-.19.08-.29.12-.25.11-.5.22-.76.33q-.3.12-.6.24c-.23.1-.45.19-.67.28-.22.1-.45.19-.68.28-1.41.58-2.83,1.15-4.25,1.7-.09.04-.17.07-.25.1-.73.28-1.46.56-2.19.83-.73.28-1.46.55-2.2.82-.45.17-.89.33-1.34.49s-.89.32-1.35.48h-.02c-1.07.39-2.13.76-3.23,1.14h-.01c-.26.09-.55.18-.82.28-.07.02-.13.04-.19.06-1.04.35-2.07.69-3.12,1.03-.55.17-1.11.35-1.66.53s-1.11.35-1.67.52c-.03.01-.05.01-.06.02-.63.19-1.26.39-1.89.57-1.04.32-2.09.62-3.14.92-.72.21-1.45.41-2.17.61q-2.19.6-4.35,1.17c-2.18.56-4.33,1.09-6.5,1.59-2.12.49-4.24.95-6.33,1.39-.05.01-.09.02-.14.03-1.01.2-2.01.4-3.01.59-1.05.21-2.1.4-3.15.59-.17.03-.32.06-.49.09-.64.11-1.3.23-1.95.34-1.31.22-2.61.43-3.91.63-.65.1-1.29.2-1.95.29a.06.06,0,0,0-.04.01c-.13.02-.24.04-.37.06h-.06c-1.42.2-2.82.39-4.22.57h-.01c-1.39.18-2.8.34-4.19.49-2.77.3-5.54.55-8.28.75h-.01c-2.73.2-5.46.35-8.15.45h-.01c-1.35.05-2.68.09-4.01.11h-.03c-1.32.03-2.64.04-3.96.04-.99,0-1.98-.01-2.96-.02-.84-.01-1.7-.03-2.53-.05a.4869.4869,0,0,1-.12-.01c-.25,0-.48-.01-.73-.02-1.78-.05-3.57-.13-5.33-.23q-.225-.015-.48-.03c-.16-.01-.32-.01-.48-.03-.25-.01-.49-.02-.74-.04-.24-.02-.47-.03-.69-.05-.76-.05-1.53-.11-2.28-.17h-.01c-.16-.01-.32-.03-.5-.04-.58-.05-1.18-.1-1.76-.16-1.51-.14-3-.29-4.49-.47-.56-.07-1.12-.13-1.68-.21-.45-.05-.89-.11-1.33-.17-.12-.02-.23-.03-.35-.05-.04-.01-.09-.01-.14-.02-.89-.12-1.8-.25-2.69-.39-.76-.12-1.51-.24-2.26-.37-.17-.03-.35-.06-.52-.09-.18-.03-.35-.06-.54-.09-.35-.06-.69-.12-1.05-.19-.7-.12-1.38-.25-2.07-.39h-.01c-.81-.16-1.62-.32-2.43-.49-.25-.05-.5-.11-.75-.16-.04-.01-.08-.02-.13-.03s-.09-.02-.13-.03c-.35-.07-.7-.15-1.04-.23-.68-.15-1.36-.31-2.04-.47q-.975-.2251-1.92-.48c-.63-.16-1.26-.33-1.89-.5-.67-.18-1.35-.36-2-.55-.06-.02-.12-.03-.18-.05-1.26-.36-2.51-.74-3.74-1.13a1.2551,1.2551,0,0,1-.14-.04c-.45-.14-.89-.29-1.33-.44-.44-.14-.87-.29-1.3-.44a3.2164,3.2164,0,0,1-.37-.12c-.26-.09-.51-.18-.77-.27-.62-.22-1.24-.44-1.85-.67s-1.22-.46-1.82-.69c-.61-.24-1.21-.47-1.8-.72-.39-.16-.78-.32-1.16-.48-.33-.14-.65-.28-.97-.42-1.05-.45-2.08-.91-3.09-1.39h-.01V160.79q8.925-.21,18.31-.37c.3.01.58.02.89.04a249.6155,249.6155,0,0,0,41.42,15.3c.23.89.45,1.79.68,2.68.14.57.3,1.13.44,1.7,1.4,5.52,10.4,5.93,11.56,0,.08-.39.15-.78.24-1.17q8.745,1.95,17.34,3.25c.17,1.16.32,2.31.48,3.47q.885,6.48,1.76,12.97.12.84.24,1.68.66,4.9651,1.36,9.93c.23,1.77.47,3.53.71,5.3.81,5.95,10.37,5.49,11.57,0,.38-1.76.78-3.52,1.16-5.28.84-3.88,1.7-7.77,2.54-11.65l2.83-12.93c.08-.37.15-.73.23-1.1,4.48.26,8.88.38,13.23.38q1.785,0,3.57-.03c1.19-.02,2.38-.05,3.56-.09,1.19-.03,2.37-.08,3.54-.14.82-.04,1.64-.09,2.46-.14q.915-.0448,1.83-.12h.05c.05,0,.1-.01.13-.01.42-.03.82-.06,1.23-.09.44-.03.89-.07,1.33-.11.84-.06,1.67-.14,2.49-.22.06-.01.13-.01.19-.02a.1952.1952,0,0,1,.07-.01,5.5836,5.5836,0,0,0,.59-.06c.42-.04.84-.08,1.27-.13.61-.06,1.2-.13,1.82-.2.55-.06,1.08-.13,1.62-.2q3.105-.375,6.12-.87c.82-.13,1.63-.27,2.44-.41.93-.16,1.84-.33,2.75-.5.48-.09.94-.18,1.42-.27q.66-.135,1.29-.27c.38-.08.75-.16,1.12-.24.79-.16,1.55-.33,2.31-.51.35-.08.69-.16,1.04-.24.43-.1.86-.2,1.28-.31.63-.15,1.25-.31,1.88-.47.84-.22,1.66-.44,2.48-.67.09-.02.17-.05.26-.07.05-.01.11-.03.16-.04.11-.03.22-.06.33-.1.73-.2,1.45-.41,2.17-.63a.135.135,0,0,0,.05-.01.6373.6373,0,0,1,.07-.02c.79-.24,1.59-.49,2.39-.74.99-.32,1.96-.64,2.94-.98.13-.05.26-.09.4-.14.23-.08.46-.16.68-.24.22-.07.44-.15.66-.23.61-.22,1.21-.44,1.81-.67.35-.13.7-.26,1.05-.4.1-.04.21-.08.32-.12.53-.21,1.07-.42,1.59-.64.66-.26,1.3-.53,1.94-.8.61-.26,1.21-.52,1.81-.79a.9135.9135,0,0,1,.14-.07c.24-.1.48-.21.72-.32.64-.29,1.28-.59,1.91-.89.75-.36,1.49-.72,2.22-1.1.74-.37,1.46-.75,2.18-1.13.63-.34,1.26-.69,1.88-1.03a1.0523,1.0523,0,0,0,.11-.06c.66-.38,1.33-.77,1.97-1.15.67-.4,1.31-.79,1.94-1.19.65-.4,1.28-.81,1.9-1.22.62-.4,1.22-.82,1.83-1.25.32-.22.62-.43.9-.64.3-.21.6-.43.9-.65h.01c.53-.4,1.07-.8,1.58-1.21.3-.22.59-.45.86-.68.08-.05.15-.12.23-.18.25-.19.49-.38.71-.58.04-.04.09-.07.13-.11l.81-.66c.11-.1.22-.19.33-.3a1.107,1.107,0,0,0,.11-.1c.42-.35.81-.7,1.22-1.07.05-.05.1-.09.15-.14q.735-.675,1.44-1.35c.35-.32.68-.65,1-.97.37-.37.72-.73,1.07-1.1.14-.14.29-.29.43-.44.2-.22.39-.43.6-.65.18-.19.36-.39.53-.59.39-.43.77-.86,1.13-1.3.22-.25.43-.5.62-.75.61-.71,1.17-1.43,1.72-2.17.01,0,.01-.01.01-.02a2.164,2.164,0,0,1,.14-.18c.14-.18.28-.37.42-.56.18-.26.37-.51.55-.77.1-.14.19-.28.28-.42C385.4888,144.67,385.7488,144.28,385.9988,143.9Z"/><path class="cls-20" d="M215.6638,175.76a249.51,249.51,0,0,1-41.41-15.3c3.85.18,8.8.71,12.75-.26h.01a8.5053,8.5053,0,0,0,5.38-3.43c1.81-2.76,3.57-5.57,5.3-8.39,2.61-4.24,5.14-8.54,7.67-12.84q1.665,6.465,3.31,12.94,1.47,5.73,2.94,11.45Q213.6388,167.85,215.6638,175.76Z"/><path class="cls-20" d="M227.2288,123.56c-.42,2.12-.83,4.24-1.25,6.36-1.21,6.22-2.44,12.44-3.64,18.65-.18.92-.36,1.83-.55,2.75-.23-.92-.46-1.83-.69-2.75q-2.4-9.3-4.76-18.6-.975-3.72-1.92-7.46c-.34-1.36-.69-2.73-1.05-4.09-1.29-5.08-8.34-5.77-10.96-1.43-1.07,1.77-2.14,3.55-3.22,5.32q-2.37,3.93-4.75,7.86-5.445,9.03-10.9,18.05-14.7-.1953-28.49-.46V64.26c.44.59.9,1.19,1.35,1.78.15.22.33.44.51.66.48.63.96,1.26,1.46,1.88.04.04.06.07.1.11.48.61.98,1.23,1.49,1.84.26.32.53.65.81.98.27.32.54.64.82.97.57.68,1.15,1.35,1.75,2.03.55.63,1.1,1.26,1.68,1.89q1.485,1.665,3.06,3.3c.58.62,1.17,1.24,1.77,1.85.42.44.85.87,1.27,1.3q2.235,2.235,4.57,4.44c.51.48,1.03.96,1.55,1.44.6.56,1.2,1.1,1.81,1.65.36.33.72.65,1.08.97s.72.64,1.09.95c.64.56,1.3,1.13,1.95,1.68.01.02.04.03.06.05.18.16.35.31.52.45.6.51,1.19,1.01,1.79,1.51.1.08.2.17.31.25.7.58,1.41,1.15,2.13,1.73.55.46,1.11.9,1.67,1.33.01.01.03.02.04.03.5.4,1,.79,1.5,1.18.3.23.6.47.91.69.19.15.38.29.57.43.78.61,1.57,1.21,2.37,1.79,1.02.76,2.06,1.51,3.11,2.26.2.15.39.29.6.43.75.53,1.5,1.05,2.27,1.58.65.47,1.32.93,1.98,1.38h.02c.88.6,1.76,1.2,2.65,1.78.91.59,1.81,1.18,2.72,1.76.7.45,1.4.9,2.1,1.34q4.11,2.58,8.42,5.04c.28.16.55.31.82.47.26.15.52.3.78.44.01.01.03.01.04.02s.03.01.04.02c.74.42,1.47.84,2.22,1.24.85.47,1.69.93,2.55,1.39a.4271.4271,0,0,1,.07.04C226.0288,122.93,226.6188,123.24,227.2288,123.56Z"/><path class="cls-20" d="M245.9338,182.22q-8.595-1.305-17.35-3.25l.09-.45,3.66-18.72c.73-3.72,1.45-7.45,2.19-11.17q1.83-9.375,3.67-18.76c.05-.26.1-.53.15-.79.12.06.25.12.38.17.03.21.06.41.08.62q1.275,9.39,2.56,18.77.75,5.5649,1.51,11.13,1.29,9.39,2.56,18.79C245.6038,179.78,245.7638,181,245.9338,182.22Z"/><path class="cls-20" d="M277.8738,143.8c-.47.41-.95.83-1.42,1.24-3.77.18-7.77.99-10.47,3.61a9.2625,9.2625,0,0,0-1.46,1.79,7.2911,7.2911,0,0,0-.97,2.57c-.06.13-.26.8-.35,1.13q-.765,2.79-1.38,5.63c-.96,4.29-1.74,8.65-2.68,12.92q-.63,2.9252-1.28,5.87c-.08.4-.17.79-.26,1.19-.05-.4-.11-.79-.16-1.19q-1.29-9.405-2.56-18.8-.75-5.55-1.51-11.1-.945-6.93-1.89-13.87A254.7358,254.7358,0,0,0,277.8738,143.8Z"/><path class="cls-20" d="M386.0038,143.9c-.25.38-.51.77-.77,1.14-.16.23-.32.46-.49.69a.6769.6769,0,0,0-.07.11c-.23.32-.46.64-.7.95-.05.06-.09.12-.14.18,0,.01,0,.02-.01.02-.55.74-1.11,1.46-1.71,2.17-.2.25-.41.5-.62.75-.74.87-1.51,1.74-2.31,2.58-.48.51-.96,1-1.46,1.5-.32.32-.65.65-.99.97q-.705.6749-1.44,1.35c-.05.05-.1.09-.16.14-.4.37-.8.72-1.21,1.07-.08.07-.15.14-.23.2-.34.29-.68.58-1.02.86-.63.53-1.27,1.04-1.93,1.55-.52.41-1.05.81-1.59,1.21h-.01c-.29.22-.59.44-.89.65-.29.21-.59.42-.9.64-.61.43-1.22.85-1.84,1.25-.62.41-1.25.82-1.89,1.22-.63.4-1.28.79-1.94,1.19-.65.38-1.31.77-1.98,1.15a.8651.8651,0,0,1-.1.06c-.62.34-1.25.69-1.89,1.03-.71.38-1.44.76-2.17,1.13-.67.34-1.34.68-2.03,1.01-.24.12-.49.23-.74.35-.45.22-.91.43-1.37.63-.24.11-.47.22-.71.32-.64.3-1.29.58-1.95.86-.64.27-1.29.54-1.94.8-.53.22-1.06.43-1.6.64-.11.04-.21.08-.32.12-.34.14-.7.27-1.05.4-.09.04-.19.07-.28.1q-.765.3-1.53.57c-.44.16-.88.31-1.33.47-.14.05-.27.09-.41.14-.97.34-1.95.66-2.94.98-.79.25-1.59.5-2.39.74-.02.01-.05.01-.07.02a.09.09,0,0,1-.05.01c-.83.25-1.66.49-2.5.73-.05.01-.1.03-.15.04a2.48,2.48,0,0,1-.26.07c-.82.23-1.65.45-2.48.67-1.05.27-2.1.53-3.17.78-.34.08-.69.16-1.03.24q-1.14.27-2.31.51c-.37.08-.74.16-1.12.24-.43.09-.86.18-1.3.27l-1.41.27c-.91.17-1.83.34-2.75.5-.81.14-1.63.28-2.45.41-1,.16-2.02.31-3.04.46-1.02.14-2.04.28-3.07.41-.54.07-1.08.14-1.63.2-.61.07-1.21.14-1.82.2-.42.05-.84.09-1.27.13a5.42,5.42,0,0,1-.58.06.1686.1686,0,0,0-.07.01c-.89.08-1.78.17-2.68.24-.44.04-.89.08-1.34.11-.4.03-.81.06-1.22.09-.04,0-.09.01-.13.01-.63.05-1.25.08-1.89.12-.82.05-1.64.1-2.46.14-1.16.06-2.34.11-3.53.14-1.18.04-2.37.07-3.56.09s-2.38.03-3.58.03q-6.51,0-13.22-.38c.36-1.65.72-3.31,1.08-4.96.08-.37.16-.75.24-1.12,1.36-6.23,2.72-12.44,4.08-18.67,0-.02.01-.03.01-.05.19-.81.36-1.63.54-2.44,1.79-.27,5.87-.72,6.28-.89,2.97-1.25,5.64-4.48,8.01-6.56.52-.46,1.05-.92,1.58-1.39h.01c.46-.41.93-.81,1.39-1.22.55.12,1.09.24,1.63.35l1.08.84q3.045,2.37,6.08,4.74c2.81,2.19,6.02,5.51,9.55,6.89h.01a8.8482,8.8482,0,0,0,2.8.61c10.71.44,21.53.01,32.27,0h.41c5.43,0,7.04-5.93,4.83-9.45.82-.08,1.63-.17,2.44-.27.61-.07,1.22-.14,1.82-.22l.9-.12c.7-.1,1.39-.2,2.08-.31.75-.11,1.49-.23,2.23-.36a1.4753,1.4753,0,0,0,.29-.05q1.095-.18,2.16-.39c.77-.14,1.54-.3,2.3-.46.83-.17,1.64-.35,2.45-.54.82-.19,1.62-.38,2.42-.59l1.29-.33c.42-.12.84-.23,1.26-.35.48-.13.96-.27,1.43-.41.72-.21,1.43-.42,2.13-.65a.4331.4331,0,0,0,.05-.01c.69-.22,1.37-.45,2.05-.68.49-.17.98-.34,1.46-.51a.8888.8888,0,0,1,.15-.05c.31-.12.62-.23.93-.35a1.35,1.35,0,0,0,.18-.07q.675-.24,1.35-.51c.57-.22,1.13-.45,1.68-.68.2-.08.39-.16.58-.24.56-.23,1.11-.48,1.66-.72C386.0038,142.91,386.0038,143.41,386.0038,143.9Z"/><path class="cls-21" d="M238.0938,85.82a5.3726,5.3726,0,0,0-4.29,4.09c-.36,1.82-.71,3.63-1.07,5.45q-1.32,6.72-2.62,13.44-1.365,6.915-2.71,13.82c-.06.31-.12.63-.18.94-.6-.32-1.2-.63-1.79-.95a.4274.4274,0,0,1-.07-.04c-.86-.46-1.71-.92-2.55-1.39-.75-.4-1.49-.82-2.23-1.24-.01-.01-.02-.01-.03-.02-.55-.3-1.1-.62-1.65-.93q-4.29-2.46-8.41-5.04c-.71-.44-1.41-.89-2.11-1.34-.91-.58-1.81-1.17-2.71-1.76-.9-.58-1.78-1.18-2.66-1.78h-.01c-.67-.45-1.33-.91-1.99-1.38-.76-.53-1.51-1.05-2.26-1.58-.21-.14-.41-.28-.61-.43q-3.09-2.2048-6.05-4.48c-.1-.08-.21-.16-.31-.24-.7-.53-1.4-1.07-2.09-1.63-.29-.22-.57-.45-.86-.68-.29-.22-.57-.45-.85-.68q-2.16-1.725-4.23-3.49c-.18-.14-.35-.29-.53-.45-.02-.02-.04-.03-.06-.05-.65-.55-1.3-1.12-1.95-1.68q-1.095-.945-2.16-1.92c-2.76-2.47-5.4-4.99-7.93-7.53-.67-.67-1.33-1.35-1.98-2.03-.69-.71-1.37-1.42-2.04-2.14-.62-.67-1.24-1.34-1.85-2.01l-.24-.27q-.855-.9448-1.68-1.89c-.59-.68-1.18-1.35-1.75-2.03-.55-.65-1.09-1.3-1.63-1.95-.5-.61-1-1.22-1.49-1.84-.03-.04-.06-.07-.09-.11-.5-.62-.99-1.25-1.47-1.88q-.27-.33-.51-.66c-.46-.6-.9-1.19-1.34-1.78V58.2a41.11,41.11,0,0,1,25.7-38.28q1.905,4.41,4.3,8.82c.32.58.64,1.17.97,1.75.9,1.6,1.86,3.2,2.86,4.8.3.5.62,1.01.95,1.51.61.95,1.23,1.89,1.87,2.83.35.52.7,1.03,1.07,1.54.26.38.52.76.8,1.14q1.065,1.5,2.19,3c.38.52.78,1.04,1.19,1.56q.75.9752,1.53,1.95c.3.39.62.78.94,1.18.42.52.85,1.03,1.28,1.55.42.52.86,1.04,1.31,1.55.43.51.88,1.03,1.32,1.54.68.78,1.37,1.55,2.07,2.32.58.64,1.16,1.27,1.76,1.91.59.63,1.19,1.26,1.8,1.9.97,1.01,1.96,2.02,2.97,3.02,1,1,2.03,2,3.07,2.99,1.04,1,2.1,1.99,3.18,2.96.02.02.05.04.07.06.5.45.99.9,1.5,1.36q5.94,5.31,12.55,10.37c.01.01.03.02.04.03.43.32.85.65,1.28.98Q235.8138,84.19,238.0938,85.82Z"/><path class="cls-21" d="M238.5538,127.98c.06.42.12.85.17,1.27-.13-.05-.26-.11-.38-.17C238.4138,128.71,238.4838,128.35,238.5538,127.98Z"/><path class="cls-21" d="M293.6638,147.66c-.54-.11-1.08-.23-1.63-.35.19-.16.37-.33.56-.49C292.9538,147.1,293.3038,147.38,293.6638,147.66Z"/><path class="cls-21" d="M385.9838,142.42c-.55.24-1.1.49-1.66.72-.19.08-.38.16-.58.24-.55.23-1.11.46-1.68.68q-.675.27-1.35.51a1.35,1.35,0,0,1-.18.07c-.31.12-.62.23-.93.35a.8888.8888,0,0,0-.15.05c-.48.17-.97.34-1.46.51-.68.23-1.36.46-2.05.68a.4331.4331,0,0,1-.05.01c-.7.23-1.41.44-2.13.65-.47.14-.95.28-1.43.41-.42.12-.84.23-1.26.35l-1.29.33c-.8.21-1.6.4-2.42.59-.81.19-1.62.37-2.45.54-.76.16-1.53.32-2.3.46q-1.065.21-2.16.39a1.4753,1.4753,0,0,1-.29.05c-.74.13-1.48.25-2.23.36-.69.11-1.38.21-2.08.31l-.9.12c-.6.08-1.21.15-1.82.22-.81.1-1.62.19-2.44.27a5.4254,5.4254,0,0,0-4.83-2.55h-31.44c-.18-.14-.35-.28-.53-.42h-.01q-8.64-6.7349-17.29-13.48c-2.69-2.1-5.79-2.36-8.48,0q-5.13,4.4851-10.24,8.96a254.7358,254.7358,0,0,1-26.39-9.01c-.22-1.65-.45-3.29-.67-4.94-.33-2.37-.65-4.75-.97-7.12q-.96-7.005-1.91-14.01c-.16-1.19-.33-2.39-.49-3.58l-1.32-9.69c-.2-1.51-.41-3.01-.61-4.52.82.54,1.65,1.08,2.49,1.63.57.36,1.14.72,1.72,1.09.81.51,1.62,1.02,2.44,1.52l.49.3,1.37.84,2.1,1.26q5.85,3.45,12.05,6.68c.73.39,1.47.77,2.21,1.14.88.45,1.77.89,2.66,1.33.61.31,1.22.61,1.84.9.78.38,1.56.75,2.35,1.12.64.31,1.28.61,1.93.9.86.41,1.73.81,2.6,1.2,1.33.6,2.65,1.18,3.98,1.74q1.2.5248,2.4,1.02c1.03.45,2.07.87,3.1,1.28.86.36,1.72.7,2.58,1.03.77.31,1.54.61,2.32.9,1.48.57,2.95,1.11,4.43,1.64q.465.18.93.33c1.59.58,3.18,1.12,4.77,1.65.58.2,1.16.39,1.73.57q2.235.735,4.47,1.41a.6609.6609,0,0,0,.2.06c.75.23,1.5.45,2.25.68.38.11.76.22,1.13.33,1.24.36,2.48.71,3.71,1.04.56.15,1.11.3,1.66.44q4.365,1.17,8.7,2.13c.66.15,1.32.3,1.97.44q5.91,1.275,11.71,2.2c1.57.25,3.13.48,4.69.7.65.09,1.31.18,1.95.26.12.02.24.03.35.05h.04c.44.06.88.11,1.31.16.44.05.88.11,1.31.15q.675.09,1.35.15c.72.08,1.44.15,2.16.22,1.02.1,2.03.19,3.04.27.86.07,1.71.13,2.57.19a4.0279,4.0279,0,0,0,.49.03c.49.04.98.06,1.47.09s.98.06,1.46.08q1.485.0749,2.97.12c.67.02,1.34.04,2.01.05.58.01,1.15.02,1.72.03q5.94.09,11.64-.25A41.6413,41.6413,0,0,1,385.9838,142.42Z"/><path class="cls-22" d="M384.3338,132.03q-5.7.33-11.64.25c-.57-.01-1.14-.02-1.72-.03-.67-.01-1.34-.03-2.01-.05q-1.485-.045-2.97-.12c-.48-.02-.97-.05-1.46-.08s-.98-.05-1.47-.09a4.0279,4.0279,0,0,1-.49-.03c-.86-.06-1.71-.12-2.57-.19-1.01-.08-2.02-.17-3.04-.27-.72-.07-1.44-.14-2.16-.22q-.675-.06-1.35-.15c-.43-.04-.87-.1-1.31-.15-.43-.05-.87-.1-1.31-.16h-.04c-.11-.02-.23-.03-.35-.05-.64-.08-1.3-.17-1.95-.26-1.56-.22-3.12-.45-4.69-.7q-5.805-.915-11.71-2.2c-.65-.14-1.31-.29-1.97-.44q-4.335-.96-8.7-2.13c-.55-.14-1.1-.29-1.66-.44-1.23-.33-2.47-.68-3.71-1.04-.37-.11-.75-.22-1.13-.33-.75-.23-1.5-.45-2.25-.68a.6609.6609,0,0,1-.2-.06q-2.235-.6748-4.47-1.41c-.57-.18-1.15-.37-1.73-.57-1.59-.53-3.18-1.07-4.77-1.65q-.465-.15-.93-.33c-1.48-.53-2.95-1.07-4.43-1.64-.78-.29-1.55-.59-2.32-.9-.86-.33-1.72-.67-2.58-1.03-1.03-.41-2.07-.83-3.1-1.28q-1.2-.4948-2.4-1.02c-1.33-.56-2.65-1.14-3.98-1.74-.87-.39-1.74-.79-2.6-1.2-.65-.29-1.29-.59-1.93-.9-.79-.37-1.57-.74-2.35-1.12-.62-.29-1.23-.59-1.84-.9-.89-.44-1.78-.88-2.66-1.33-.74-.37-1.48-.75-2.21-1.14q-6.195-3.225-12.05-6.68l-2.1-1.26-1.37-.84-.49-.3c-.82-.5-1.63-1.01-2.44-1.52-.58-.37-1.15-.73-1.72-1.09-.84-.55-1.67-1.09-2.49-1.63-.05-.34-.09-.68-.14-1.02-.48-3.53-4.16-4.83-7.27-4.09h-.01q-2.28-1.635-4.47-3.28c-.43-.33-.85-.66-1.28-.98-.01-.01-.03-.02-.04-.03q-6.6-5.055-12.55-10.37c-.51-.46-1-.91-1.5-1.36-.02-.02-.05-.04-.07-.06q-1.62-1.47-3.18-2.96c-1.04-.99-2.07-1.99-3.07-2.99-1.01-1-2-2.01-2.97-3.02-.61-.64-1.21-1.27-1.8-1.9-.6-.64-1.18-1.27-1.76-1.91-.7-.77-1.39-1.54-2.07-2.32-.44-.51-.89-1.03-1.32-1.54-.44-.51-.88-1.03-1.31-1.55s-.86-1.03-1.28-1.55c-.32-.4-.63-.79-.94-1.18q-.78-.975-1.53-1.95c-.4-.52-.8-1.04-1.19-1.56q-1.125-1.5-2.19-3c-.28-.38-.54-.76-.8-1.14-.37-.51-.72-1.02-1.07-1.54-.64-.94-1.26-1.88-1.87-2.83-.33-.5-.65-1.01-.95-1.51-1-1.6-1.96-3.2-2.86-4.8-.33-.58-.65-1.17-.97-1.75q-2.385-4.41-4.3-8.82a40.8041,40.8041,0,0,1,36.33,2.46l58.69,33.88,23.46,13.55,21.22,12.25,21.19,12.24,23.7,13.68c1.22.71,2.39,1.46,3.51,2.26h.01a41.0106,41.0106,0,0,1,10.28,10.61h.01a40.8661,40.8661,0,0,1,5.03,10.68C384.2338,131.7,384.2838,131.86,384.3338,132.03Z"/></svg>